<mxfile host="65bd71144e">
    <diagram id="C5RBs43oDa-KdzZeNtuy" name="Page-1">
        <mxGraphModel dx="1303" dy="295" grid="1" gridSize="10" guides="1" tooltips="1" connect="1" arrows="1" fold="1" page="1" pageScale="1" pageWidth="827" pageHeight="1169" math="0" shadow="0">
            <root>
                <mxCell id="WIyWlLk6GJQsqaUBKTNV-0"/>
                <mxCell id="WIyWlLk6GJQsqaUBKTNV-1" parent="WIyWlLk6GJQsqaUBKTNV-0"/>
                <mxCell id="M7CGMbNuYNeq0SnUNNgH-6" value="ทบทวนสัญลักษณ์" style="swimlane;fontFamily=Sarabun;fontSource=https%3A%2F%2Ffonts.googleapis.com%2Fcss%3Ffamily%3DSarabun;" parent="WIyWlLk6GJQsqaUBKTNV-1" vertex="1">
                    <mxGeometry x="-720" y="20" width="650" height="290" as="geometry"/>
                </mxCell>
                <mxCell id="M7CGMbNuYNeq0SnUNNgH-2" value="&lt;font data-font-src=&quot;https://fonts.googleapis.com/css?family=Sarabun&quot; face=&quot;Sarabun&quot;&gt;เริ่มต้น&lt;/font&gt;" style="ellipse;whiteSpace=wrap;html=1;" parent="M7CGMbNuYNeq0SnUNNgH-6" vertex="1">
                    <mxGeometry x="20" y="40" width="130" height="30" as="geometry"/>
                </mxCell>
                <mxCell id="M7CGMbNuYNeq0SnUNNgH-5" value="" style="endArrow=classic;html=1;rounded=0;" parent="M7CGMbNuYNeq0SnUNNgH-6" edge="1">
                    <mxGeometry width="50" height="50" relative="1" as="geometry">
                        <mxPoint x="84.5" y="70" as="sourcePoint"/>
                        <mxPoint x="84.5" y="120" as="targetPoint"/>
                    </mxGeometry>
                </mxCell>
                <mxCell id="M7CGMbNuYNeq0SnUNNgH-3" value="&lt;font face=&quot;Sarabun&quot;&gt;สิ้นสุด&lt;/font&gt;" style="ellipse;whiteSpace=wrap;html=1;" parent="M7CGMbNuYNeq0SnUNNgH-6" vertex="1">
                    <mxGeometry x="150" y="90" width="130" height="30" as="geometry"/>
                </mxCell>
                <mxCell id="M7CGMbNuYNeq0SnUNNgH-4" value="" style="endArrow=classic;html=1;rounded=0;" parent="M7CGMbNuYNeq0SnUNNgH-6" edge="1">
                    <mxGeometry width="50" height="50" relative="1" as="geometry">
                        <mxPoint x="214.5" y="40" as="sourcePoint"/>
                        <mxPoint x="214.5" y="90" as="targetPoint"/>
                    </mxGeometry>
                </mxCell>
                <mxCell id="mvioNwK95yMqdUQ73LqQ-0" value="กระบวนการ" style="rounded=0;whiteSpace=wrap;html=1;fontFamily=Sarabun;fontSource=https%3A%2F%2Ffonts.googleapis.com%2Fcss%3Ffamily%3DSarabun;" parent="M7CGMbNuYNeq0SnUNNgH-6" vertex="1">
                    <mxGeometry x="320" y="70" width="120" height="30" as="geometry"/>
                </mxCell>
                <mxCell id="mvioNwK95yMqdUQ73LqQ-1" value="" style="endArrow=classic;html=1;rounded=0;" parent="M7CGMbNuYNeq0SnUNNgH-6" edge="1">
                    <mxGeometry width="50" height="50" relative="1" as="geometry">
                        <mxPoint x="379" y="40" as="sourcePoint"/>
                        <mxPoint x="379.5" y="70" as="targetPoint"/>
                    </mxGeometry>
                </mxCell>
                <mxCell id="mvioNwK95yMqdUQ73LqQ-2" value="" style="endArrow=classic;html=1;rounded=0;" parent="M7CGMbNuYNeq0SnUNNgH-6" edge="1">
                    <mxGeometry width="50" height="50" relative="1" as="geometry">
                        <mxPoint x="379.75" y="100" as="sourcePoint"/>
                        <mxPoint x="380.25" y="130" as="targetPoint"/>
                    </mxGeometry>
                </mxCell>
                <mxCell id="mvioNwK95yMqdUQ73LqQ-3" value="ประโยคเงื่อนไข" style="rhombus;whiteSpace=wrap;html=1;fontFamily=Sarabun;fontSource=https%3A%2F%2Ffonts.googleapis.com%2Fcss%3Ffamily%3DSarabun;" parent="M7CGMbNuYNeq0SnUNNgH-6" vertex="1">
                    <mxGeometry x="490" y="60" width="100" height="60" as="geometry"/>
                </mxCell>
                <mxCell id="mvioNwK95yMqdUQ73LqQ-4" value="" style="endArrow=classic;html=1;rounded=0;" parent="M7CGMbNuYNeq0SnUNNgH-6" edge="1">
                    <mxGeometry width="50" height="50" relative="1" as="geometry">
                        <mxPoint x="539.71" y="30" as="sourcePoint"/>
                        <mxPoint x="540.21" y="60" as="targetPoint"/>
                    </mxGeometry>
                </mxCell>
                <mxCell id="mvioNwK95yMqdUQ73LqQ-5" value="" style="endArrow=classic;html=1;rounded=0;" parent="M7CGMbNuYNeq0SnUNNgH-6" edge="1">
                    <mxGeometry width="50" height="50" relative="1" as="geometry">
                        <mxPoint x="539.71" y="120" as="sourcePoint"/>
                        <mxPoint x="540" y="175" as="targetPoint"/>
                    </mxGeometry>
                </mxCell>
                <mxCell id="mvioNwK95yMqdUQ73LqQ-7" value="จริง" style="edgeLabel;html=1;align=center;verticalAlign=middle;resizable=0;points=[];fontFamily=Sarabun;fontSource=https%3A%2F%2Ffonts.googleapis.com%2Fcss%3Ffamily%3DSarabun;" parent="mvioNwK95yMqdUQ73LqQ-5" vertex="1" connectable="0">
                    <mxGeometry x="-0.4142" y="-1" relative="1" as="geometry">
                        <mxPoint as="offset"/>
                    </mxGeometry>
                </mxCell>
                <mxCell id="mvioNwK95yMqdUQ73LqQ-6" value="" style="endArrow=classic;html=1;rounded=0;exitX=1;exitY=0.5;exitDx=0;exitDy=0;" parent="M7CGMbNuYNeq0SnUNNgH-6" source="mvioNwK95yMqdUQ73LqQ-3" edge="1">
                    <mxGeometry width="50" height="50" relative="1" as="geometry">
                        <mxPoint x="620" y="95" as="sourcePoint"/>
                        <mxPoint x="610" y="175" as="targetPoint"/>
                        <Array as="points">
                            <mxPoint x="610" y="90"/>
                        </Array>
                    </mxGeometry>
                </mxCell>
                <mxCell id="mvioNwK95yMqdUQ73LqQ-8" value="&lt;font data-font-src=&quot;https://fonts.googleapis.com/css?family=Sarabun&quot; face=&quot;Sarabun&quot;&gt;เท็จ&lt;/font&gt;" style="edgeLabel;html=1;align=center;verticalAlign=middle;resizable=0;points=[];" parent="mvioNwK95yMqdUQ73LqQ-6" vertex="1" connectable="0">
                    <mxGeometry x="-0.0019" y="-2" relative="1" as="geometry">
                        <mxPoint as="offset"/>
                    </mxGeometry>
                </mxCell>
                <mxCell id="mvioNwK95yMqdUQ73LqQ-9" value="&lt;font data-font-src=&quot;https://fonts.googleapis.com/css?family=Sarabun&quot; face=&quot;Sarabun&quot;&gt;ฟังก์ชัน/โมดูล&lt;/font&gt;" style="shape=process;whiteSpace=wrap;html=1;backgroundOutline=1;" parent="M7CGMbNuYNeq0SnUNNgH-6" vertex="1">
                    <mxGeometry x="25" y="180" width="120" height="30" as="geometry"/>
                </mxCell>
                <mxCell id="mvioNwK95yMqdUQ73LqQ-11" value="" style="endArrow=classic;html=1;rounded=0;" parent="M7CGMbNuYNeq0SnUNNgH-6" edge="1">
                    <mxGeometry width="50" height="50" relative="1" as="geometry">
                        <mxPoint x="84.70999999999998" y="150" as="sourcePoint"/>
                        <mxPoint x="85.20999999999998" y="180" as="targetPoint"/>
                    </mxGeometry>
                </mxCell>
                <mxCell id="mvioNwK95yMqdUQ73LqQ-12" value="" style="endArrow=classic;html=1;rounded=0;" parent="M7CGMbNuYNeq0SnUNNgH-6" edge="1">
                    <mxGeometry width="50" height="50" relative="1" as="geometry">
                        <mxPoint x="84.70999999999998" y="210" as="sourcePoint"/>
                        <mxPoint x="85.20999999999998" y="240" as="targetPoint"/>
                    </mxGeometry>
                </mxCell>
                <mxCell id="mvioNwK95yMqdUQ73LqQ-13" value="" style="strokeWidth=2;html=1;shape=mxgraph.flowchart.start_2;whiteSpace=wrap;" parent="M7CGMbNuYNeq0SnUNNgH-6" vertex="1">
                    <mxGeometry x="205" y="185" width="20" height="20" as="geometry"/>
                </mxCell>
                <mxCell id="mvioNwK95yMqdUQ73LqQ-16" value="" style="endArrow=classic;html=1;rounded=0;" parent="M7CGMbNuYNeq0SnUNNgH-6" edge="1">
                    <mxGeometry width="50" height="50" relative="1" as="geometry">
                        <mxPoint x="214.70999999999998" y="155" as="sourcePoint"/>
                        <mxPoint x="215.20999999999998" y="185" as="targetPoint"/>
                    </mxGeometry>
                </mxCell>
                <mxCell id="mvioNwK95yMqdUQ73LqQ-17" value="" style="endArrow=classic;html=1;rounded=0;entryX=0;entryY=0.5;entryDx=0;entryDy=0;entryPerimeter=0;" parent="M7CGMbNuYNeq0SnUNNgH-6" target="mvioNwK95yMqdUQ73LqQ-13" edge="1">
                    <mxGeometry width="50" height="50" relative="1" as="geometry">
                        <mxPoint x="189.99999999999997" y="155" as="sourcePoint"/>
                        <mxPoint x="190.49999999999997" y="185" as="targetPoint"/>
                        <Array as="points">
                            <mxPoint x="190" y="180"/>
                        </Array>
                    </mxGeometry>
                </mxCell>
                <mxCell id="mvioNwK95yMqdUQ73LqQ-18" value="" style="endArrow=classic;html=1;rounded=0;entryX=1;entryY=0.5;entryDx=0;entryDy=0;entryPerimeter=0;" parent="M7CGMbNuYNeq0SnUNNgH-6" target="mvioNwK95yMqdUQ73LqQ-13" edge="1">
                    <mxGeometry width="50" height="50" relative="1" as="geometry">
                        <mxPoint x="239.99999999999997" y="155" as="sourcePoint"/>
                        <mxPoint x="240.49999999999997" y="185" as="targetPoint"/>
                        <Array as="points">
                            <mxPoint x="240" y="180"/>
                        </Array>
                    </mxGeometry>
                </mxCell>
                <mxCell id="mvioNwK95yMqdUQ73LqQ-19" value="" style="endArrow=classic;html=1;rounded=0;" parent="M7CGMbNuYNeq0SnUNNgH-6" edge="1">
                    <mxGeometry width="50" height="50" relative="1" as="geometry">
                        <mxPoint x="214.70999999999998" y="205" as="sourcePoint"/>
                        <mxPoint x="215.20999999999998" y="235" as="targetPoint"/>
                    </mxGeometry>
                </mxCell>
                <mxCell id="mvioNwK95yMqdUQ73LqQ-20" value="&lt;font data-font-src=&quot;https://fonts.googleapis.com/css?family=Sarabun&quot; face=&quot;Sarabun&quot;&gt;ตัวเชื่อม&lt;/font&gt;" style="text;html=1;align=center;verticalAlign=middle;resizable=0;points=[];autosize=1;strokeColor=none;fillColor=none;" parent="M7CGMbNuYNeq0SnUNNgH-6" vertex="1">
                    <mxGeometry x="220" y="190" width="60" height="30" as="geometry"/>
                </mxCell>
                <mxCell id="mvioNwK95yMqdUQ73LqQ-25" value="" style="endArrow=classic;html=1;rounded=0;" parent="M7CGMbNuYNeq0SnUNNgH-6" edge="1">
                    <mxGeometry width="50" height="50" relative="1" as="geometry">
                        <mxPoint x="353.71" y="165" as="sourcePoint"/>
                        <mxPoint x="354.21" y="195" as="targetPoint"/>
                    </mxGeometry>
                </mxCell>
                <mxCell id="mvioNwK95yMqdUQ73LqQ-21" value="" style="verticalLabelPosition=bottom;verticalAlign=top;html=1;shape=offPageConnector;rounded=0;size=0.5;" parent="M7CGMbNuYNeq0SnUNNgH-6" vertex="1">
                    <mxGeometry x="339" y="195" width="30" height="30" as="geometry"/>
                </mxCell>
                <mxCell id="mvioNwK95yMqdUQ73LqQ-26" value="" style="endArrow=classic;html=1;rounded=0;" parent="M7CGMbNuYNeq0SnUNNgH-6" edge="1">
                    <mxGeometry width="50" height="50" relative="1" as="geometry">
                        <mxPoint x="405.71" y="195" as="sourcePoint"/>
                        <mxPoint x="406.21" y="225" as="targetPoint"/>
                    </mxGeometry>
                </mxCell>
                <mxCell id="mvioNwK95yMqdUQ73LqQ-27" value="" style="verticalLabelPosition=bottom;verticalAlign=top;html=1;shape=offPageConnector;rounded=0;size=0.5;" parent="M7CGMbNuYNeq0SnUNNgH-6" vertex="1">
                    <mxGeometry x="391" y="165" width="30" height="30" as="geometry"/>
                </mxCell>
                <mxCell id="mvioNwK95yMqdUQ73LqQ-28" value="หน้าต่อไป" style="text;html=1;align=center;verticalAlign=middle;resizable=0;points=[];autosize=1;strokeColor=none;fillColor=none;fontFamily=Sarabun;fontSource=https%3A%2F%2Ffonts.googleapis.com%2Fcss%3Ffamily%3DSarabun;" parent="M7CGMbNuYNeq0SnUNNgH-6" vertex="1">
                    <mxGeometry x="345" y="220" width="70" height="30" as="geometry"/>
                </mxCell>
                <mxCell id="mvioNwK95yMqdUQ73LqQ-29" value="ก" style="text;html=1;align=center;verticalAlign=middle;resizable=0;points=[];autosize=1;strokeColor=none;fillColor=none;fontFamily=Sarabun;fontSource=https%3A%2F%2Ffonts.googleapis.com%2Fcss%3Ffamily%3DSarabun;" parent="M7CGMbNuYNeq0SnUNNgH-6" vertex="1">
                    <mxGeometry x="339" y="190" width="30" height="30" as="geometry"/>
                </mxCell>
                <mxCell id="mvioNwK95yMqdUQ73LqQ-30" value="ก" style="text;html=1;align=center;verticalAlign=middle;resizable=0;points=[];autosize=1;strokeColor=none;fillColor=none;fontFamily=Sarabun;fontSource=https%3A%2F%2Ffonts.googleapis.com%2Fcss%3Ffamily%3DSarabun;" parent="M7CGMbNuYNeq0SnUNNgH-6" vertex="1">
                    <mxGeometry x="391" y="160" width="30" height="30" as="geometry"/>
                </mxCell>
                <mxCell id="mvioNwK95yMqdUQ73LqQ-32" value="แสดงผล/รับค่า" style="shape=parallelogram;perimeter=parallelogramPerimeter;whiteSpace=wrap;html=1;fixedSize=1;fontFamily=Sarabun;fontSource=https%3A%2F%2Ffonts.googleapis.com%2Fcss%3Ffamily%3DSarabun;" parent="M7CGMbNuYNeq0SnUNNgH-6" vertex="1">
                    <mxGeometry x="450" y="210" width="120" height="30" as="geometry"/>
                </mxCell>
                <mxCell id="mvioNwK95yMqdUQ73LqQ-33" value="" style="endArrow=classic;html=1;rounded=0;" parent="M7CGMbNuYNeq0SnUNNgH-6" edge="1">
                    <mxGeometry width="50" height="50" relative="1" as="geometry">
                        <mxPoint x="509.71" y="180" as="sourcePoint"/>
                        <mxPoint x="510.21" y="210" as="targetPoint"/>
                    </mxGeometry>
                </mxCell>
                <mxCell id="mvioNwK95yMqdUQ73LqQ-34" value="" style="endArrow=classic;html=1;rounded=0;" parent="M7CGMbNuYNeq0SnUNNgH-6" edge="1">
                    <mxGeometry width="50" height="50" relative="1" as="geometry">
                        <mxPoint x="509.71" y="240" as="sourcePoint"/>
                        <mxPoint x="510.21" y="270" as="targetPoint"/>
                    </mxGeometry>
                </mxCell>
                <mxCell id="mvioNwK95yMqdUQ73LqQ-36" value="แก้ไขโจทย์ปัญหา" style="swimlane;fontFamily=Sarabun;fontSource=https%3A%2F%2Ffonts.googleapis.com%2Fcss%3Ffamily%3DSarabun;" parent="WIyWlLk6GJQsqaUBKTNV-1" vertex="1">
                    <mxGeometry x="-723" y="640" width="649.5" height="1670" as="geometry"/>
                </mxCell>
                <mxCell id="mvioNwK95yMqdUQ73LqQ-69" value="&lt;font face=&quot;Sarabun&quot;&gt;สิ้นสุด&lt;/font&gt;" style="ellipse;whiteSpace=wrap;html=1;" parent="mvioNwK95yMqdUQ73LqQ-36" vertex="1">
                    <mxGeometry x="255" y="1620" width="130" height="30" as="geometry"/>
                </mxCell>
                <mxCell id="0" value="&lt;font data-font-src=&quot;https://fonts.googleapis.com/css?family=Sarabun&quot; face=&quot;Sarabun&quot;&gt;เริ่มต้น&lt;/font&gt;" style="ellipse;whiteSpace=wrap;html=1;" parent="mvioNwK95yMqdUQ73LqQ-36" vertex="1">
                    <mxGeometry x="277" y="60" width="130" height="30" as="geometry"/>
                </mxCell>
                <mxCell id="1" value="" style="endArrow=classic;html=1;" parent="mvioNwK95yMqdUQ73LqQ-36" target="62" edge="1">
                    <mxGeometry width="50" height="50" relative="1" as="geometry">
                        <mxPoint x="342" y="89.99999999999955" as="sourcePoint"/>
                        <mxPoint x="1000" y="-561" as="targetPoint"/>
                    </mxGeometry>
                </mxCell>
                <mxCell id="2" value="แสดงเมนูสินค้า&lt;br&gt;น้ำ / ขนม" style="shape=parallelogram;perimeter=parallelogramPerimeter;whiteSpace=wrap;html=1;fixedSize=1;" parent="mvioNwK95yMqdUQ73LqQ-36" vertex="1">
                    <mxGeometry x="277" y="130" width="120" height="30" as="geometry"/>
                </mxCell>
                <mxCell id="3" value="ขนมหรือน้ำ?" style="rhombus;whiteSpace=wrap;html=1;" parent="mvioNwK95yMqdUQ73LqQ-36" vertex="1">
                    <mxGeometry x="307" y="185" width="70" height="50" as="geometry"/>
                </mxCell>
                <mxCell id="4" value="" style="endArrow=classic;html=1;entryX=0.5;entryY=0;entryDx=0;entryDy=0;" parent="mvioNwK95yMqdUQ73LqQ-36" target="3" edge="1">
                    <mxGeometry width="50" height="50" relative="1" as="geometry">
                        <mxPoint x="342" y="159.99999999999955" as="sourcePoint"/>
                        <mxPoint x="1000" y="-491" as="targetPoint"/>
                    </mxGeometry>
                </mxCell>
                <mxCell id="5" value="" style="endArrow=classic;html=1;exitX=1;exitY=0.5;exitDx=0;exitDy=0;entryX=0.383;entryY=0.484;entryDx=0;entryDy=0;entryPerimeter=0;" parent="mvioNwK95yMqdUQ73LqQ-36" source="3" target="54" edge="1">
                    <mxGeometry width="50" height="50" relative="1" as="geometry">
                        <mxPoint x="1080" y="-451" as="sourcePoint"/>
                        <mxPoint x="1240" y="-441" as="targetPoint"/>
                        <Array as="points">
                            <mxPoint x="510" y="210"/>
                        </Array>
                    </mxGeometry>
                </mxCell>
                <mxCell id="6" value="ขนม" style="text;html=1;align=center;verticalAlign=middle;resizable=0;points=[];autosize=1;strokeColor=none;fillColor=none;" parent="mvioNwK95yMqdUQ73LqQ-36" vertex="1">
                    <mxGeometry x="227" y="180" width="50" height="30" as="geometry"/>
                </mxCell>
                <mxCell id="7" value="น้ำ" style="text;html=1;align=center;verticalAlign=middle;resizable=0;points=[];autosize=1;strokeColor=none;fillColor=none;" parent="mvioNwK95yMqdUQ73LqQ-36" vertex="1">
                    <mxGeometry x="425" y="180" width="40" height="30" as="geometry"/>
                </mxCell>
                <mxCell id="9" value="เลือกเมนูขนม&lt;br&gt;ขนมชั้น 10฿&lt;br&gt;&amp;nbsp;ฝอยทอง 15฿&lt;br&gt;ลำไยแห้ง 20฿" style="shape=parallelogram;perimeter=parallelogramPerimeter;whiteSpace=wrap;html=1;fixedSize=1;" parent="mvioNwK95yMqdUQ73LqQ-36" vertex="1">
                    <mxGeometry x="90" y="230" width="120" height="70" as="geometry"/>
                </mxCell>
                <mxCell id="10" value="เลือกเมนูน้ำ&lt;br&gt;กาแฟอเมริกาโน่ 35฿&lt;br&gt;น้ำเปล่า&amp;nbsp; &amp;nbsp;10฿&lt;br&gt;ลาเต้เย็น&amp;nbsp; &amp;nbsp; 25฿" style="shape=parallelogram;perimeter=parallelogramPerimeter;whiteSpace=wrap;html=1;fixedSize=1;" parent="mvioNwK95yMqdUQ73LqQ-36" vertex="1">
                    <mxGeometry x="445" y="225" width="120" height="70" as="geometry"/>
                </mxCell>
                <mxCell id="13" value="ขนมชั้น?" style="rhombus;whiteSpace=wrap;html=1;" parent="mvioNwK95yMqdUQ73LqQ-36" vertex="1">
                    <mxGeometry x="124" y="320" width="52" height="50" as="geometry"/>
                </mxCell>
                <mxCell id="8" style="edgeStyle=none;html=1;entryX=0.5;entryY=0;entryDx=0;entryDy=0;" parent="mvioNwK95yMqdUQ73LqQ-36" source="9" target="13" edge="1">
                    <mxGeometry relative="1" as="geometry"/>
                </mxCell>
                <mxCell id="15" value="ฝอยทอง?" style="rhombus;whiteSpace=wrap;html=1;" parent="mvioNwK95yMqdUQ73LqQ-36" vertex="1">
                    <mxGeometry x="124" y="380" width="52" height="50" as="geometry"/>
                </mxCell>
                <mxCell id="11" style="edgeStyle=none;html=1;entryX=0.5;entryY=0;entryDx=0;entryDy=0;" parent="mvioNwK95yMqdUQ73LqQ-36" source="13" target="15" edge="1">
                    <mxGeometry relative="1" as="geometry"/>
                </mxCell>
                <mxCell id="16" style="edgeStyle=none;html=1;exitX=0;exitY=0.5;exitDx=0;exitDy=0;" parent="mvioNwK95yMqdUQ73LqQ-36" source="3" target="29" edge="1">
                    <mxGeometry relative="1" as="geometry">
                        <mxPoint x="810" y="-465" as="sourcePoint"/>
                        <mxPoint x="860" y="-451" as="targetPoint"/>
                        <Array as="points"/>
                    </mxGeometry>
                </mxCell>
                <mxCell id="17" value="ลำไยแห้ัง?" style="rhombus;whiteSpace=wrap;html=1;" parent="mvioNwK95yMqdUQ73LqQ-36" vertex="1">
                    <mxGeometry x="124" y="440" width="58" height="50" as="geometry"/>
                </mxCell>
                <mxCell id="14" style="edgeStyle=none;html=1;entryX=0.5;entryY=0;entryDx=0;entryDy=0;" parent="mvioNwK95yMqdUQ73LqQ-36" source="15" target="17" edge="1">
                    <mxGeometry relative="1" as="geometry"/>
                </mxCell>
                <mxCell id="19" value="&lt;font style=&quot;font-size: 8px;&quot;&gt;&amp;nbsp;เพิ่มลงตะกร้าและบวกราคา&lt;/font&gt;" style="rounded=0;whiteSpace=wrap;html=1;" parent="mvioNwK95yMqdUQ73LqQ-36" vertex="1">
                    <mxGeometry x="252" y="332.5" width="55" height="25" as="geometry"/>
                </mxCell>
                <mxCell id="20" value="ไม่&lt;br&gt;" style="text;html=1;align=center;verticalAlign=middle;resizable=0;points=[];autosize=1;strokeColor=none;fillColor=none;" parent="mvioNwK95yMqdUQ73LqQ-36" vertex="1">
                    <mxGeometry x="114" y="360" width="40" height="30" as="geometry"/>
                </mxCell>
                <mxCell id="21" value="ไม่&lt;br&gt;" style="text;html=1;align=center;verticalAlign=middle;resizable=0;points=[];autosize=1;strokeColor=none;fillColor=none;" parent="mvioNwK95yMqdUQ73LqQ-36" vertex="1">
                    <mxGeometry x="113" y="420" width="40" height="30" as="geometry"/>
                </mxCell>
                <mxCell id="22" style="edgeStyle=none;html=1;entryX=0.139;entryY=0.563;entryDx=0;entryDy=0;entryPerimeter=0;" parent="mvioNwK95yMqdUQ73LqQ-36" target="91" edge="1">
                    <mxGeometry relative="1" as="geometry">
                        <mxPoint x="176" y="404.7600000000002" as="sourcePoint"/>
                        <mxPoint x="860" y="-266" as="targetPoint"/>
                    </mxGeometry>
                </mxCell>
                <mxCell id="23" style="edgeStyle=none;html=1;entryX=0.399;entryY=0.648;entryDx=0;entryDy=0;entryPerimeter=0;" parent="mvioNwK95yMqdUQ73LqQ-36" target="60" edge="1">
                    <mxGeometry relative="1" as="geometry">
                        <mxPoint x="307" y="399.99999999999955" as="sourcePoint"/>
                    </mxGeometry>
                </mxCell>
                <mxCell id="24" style="edgeStyle=none;html=1;entryX=0.38;entryY=0.514;entryDx=0;entryDy=0;entryPerimeter=0;" parent="mvioNwK95yMqdUQ73LqQ-36" target="60" edge="1">
                    <mxGeometry relative="1" as="geometry">
                        <mxPoint x="284" y="427.4468085106382" as="sourcePoint"/>
                    </mxGeometry>
                </mxCell>
                <mxCell id="25" value="ใช่" style="text;html=1;align=center;verticalAlign=middle;resizable=0;points=[];autosize=1;strokeColor=none;fillColor=none;" parent="mvioNwK95yMqdUQ73LqQ-36" vertex="1">
                    <mxGeometry x="152" y="315" width="40" height="30" as="geometry"/>
                </mxCell>
                <mxCell id="26" value="ใช่" style="text;html=1;align=center;verticalAlign=middle;resizable=0;points=[];autosize=1;strokeColor=none;fillColor=none;" parent="mvioNwK95yMqdUQ73LqQ-36" vertex="1">
                    <mxGeometry x="150" y="373" width="40" height="30" as="geometry"/>
                </mxCell>
                <mxCell id="27" value="ใช่" style="text;html=1;align=center;verticalAlign=middle;resizable=0;points=[];autosize=1;strokeColor=none;fillColor=none;" parent="mvioNwK95yMqdUQ73LqQ-36" vertex="1">
                    <mxGeometry x="160" y="435" width="40" height="30" as="geometry"/>
                </mxCell>
                <mxCell id="28" style="edgeStyle=none;html=1;entryX=0.5;entryY=0;entryDx=0;entryDy=0;" parent="mvioNwK95yMqdUQ73LqQ-36" source="29" target="9" edge="1">
                    <mxGeometry relative="1" as="geometry"/>
                </mxCell>
                <mxCell id="29" value="" style="shape=waypoint;sketch=0;fillStyle=solid;size=6;pointerEvents=1;points=[];fillColor=none;resizable=0;rotatable=0;perimeter=centerPerimeter;snapToPoint=1;" parent="mvioNwK95yMqdUQ73LqQ-36" vertex="1">
                    <mxGeometry x="140" y="200" width="20" height="20" as="geometry"/>
                </mxCell>
                <mxCell id="30" style="edgeStyle=none;html=1;" parent="mvioNwK95yMqdUQ73LqQ-36" source="17" target="29" edge="1">
                    <mxGeometry relative="1" as="geometry">
                        <mxPoint x="790" y="-461" as="targetPoint"/>
                        <Array as="points">
                            <mxPoint x="153" y="500"/>
                            <mxPoint x="80" y="500"/>
                            <mxPoint x="80" y="210"/>
                        </Array>
                    </mxGeometry>
                </mxCell>
                <mxCell id="31" value="ไม่&lt;br&gt;" style="text;html=1;align=center;verticalAlign=middle;resizable=0;points=[];autosize=1;strokeColor=none;fillColor=none;" parent="mvioNwK95yMqdUQ73LqQ-36" vertex="1">
                    <mxGeometry x="112" y="475" width="40" height="30" as="geometry"/>
                </mxCell>
                <mxCell id="32" style="edgeStyle=none;html=1;entryX=0.5;entryY=0;entryDx=0;entryDy=0;exitX=0.583;exitY=0.995;exitDx=0;exitDy=0;exitPerimeter=0;" parent="mvioNwK95yMqdUQ73LqQ-36" source="10" target="34" edge="1">
                    <mxGeometry relative="1" as="geometry">
                        <mxPoint x="1175" y="-371" as="sourcePoint"/>
                    </mxGeometry>
                </mxCell>
                <mxCell id="34" value="น้ำเปล่า?" style="rhombus;whiteSpace=wrap;html=1;" parent="mvioNwK95yMqdUQ73LqQ-36" vertex="1">
                    <mxGeometry x="489" y="310" width="52" height="50" as="geometry"/>
                </mxCell>
                <mxCell id="35" value="กาแฟ?" style="rhombus;whiteSpace=wrap;html=1;" parent="mvioNwK95yMqdUQ73LqQ-36" vertex="1">
                    <mxGeometry x="489" y="370" width="52" height="50" as="geometry"/>
                </mxCell>
                <mxCell id="36" style="edgeStyle=none;html=1;entryX=0.5;entryY=0;entryDx=0;entryDy=0;" parent="mvioNwK95yMqdUQ73LqQ-36" source="34" target="35" edge="1">
                    <mxGeometry relative="1" as="geometry"/>
                </mxCell>
                <mxCell id="38" value="ลาเต้?" style="rhombus;whiteSpace=wrap;html=1;" parent="mvioNwK95yMqdUQ73LqQ-36" vertex="1">
                    <mxGeometry x="489" y="430" width="58" height="50" as="geometry"/>
                </mxCell>
                <mxCell id="39" style="edgeStyle=none;html=1;entryX=0.5;entryY=0;entryDx=0;entryDy=0;" parent="mvioNwK95yMqdUQ73LqQ-36" source="35" target="38" edge="1">
                    <mxGeometry relative="1" as="geometry"/>
                </mxCell>
                <mxCell id="41" value="&lt;font style=&quot;font-size: 7px;&quot;&gt;&amp;nbsp;เพิ่มลงตะกร้าและบวกราคา&lt;/font&gt;" style="rounded=0;whiteSpace=wrap;html=1;" parent="mvioNwK95yMqdUQ73LqQ-36" vertex="1">
                    <mxGeometry x="334.5" y="330" width="55" height="30" as="geometry"/>
                </mxCell>
                <mxCell id="42" value="ไม่&lt;br&gt;" style="text;html=1;align=center;verticalAlign=middle;resizable=0;points=[];autosize=1;strokeColor=none;fillColor=none;" parent="mvioNwK95yMqdUQ73LqQ-36" vertex="1">
                    <mxGeometry x="507" y="350" width="40" height="30" as="geometry"/>
                </mxCell>
                <mxCell id="43" value="ไม่&lt;br&gt;" style="text;html=1;align=center;verticalAlign=middle;resizable=0;points=[];autosize=1;strokeColor=none;fillColor=none;" parent="mvioNwK95yMqdUQ73LqQ-36" vertex="1">
                    <mxGeometry x="507" y="410" width="40" height="30" as="geometry"/>
                </mxCell>
                <mxCell id="44" style="edgeStyle=none;html=1;entryX=1;entryY=0.5;entryDx=0;entryDy=0;" parent="mvioNwK95yMqdUQ73LqQ-36" target="100" edge="1">
                    <mxGeometry relative="1" as="geometry">
                        <mxPoint x="487" y="394.99999999999955" as="sourcePoint"/>
                        <mxPoint x="1225" y="-271" as="targetPoint"/>
                    </mxGeometry>
                </mxCell>
                <mxCell id="46" value="&lt;font style=&quot;font-size: 6px;&quot;&gt;&amp;nbsp;เพิ่มลงตะกร้าและบวกราคา&lt;/font&gt;" style="rounded=0;whiteSpace=wrap;html=1;" parent="mvioNwK95yMqdUQ73LqQ-36" vertex="1">
                    <mxGeometry x="352" y="380" width="55" height="30" as="geometry"/>
                </mxCell>
                <mxCell id="48" value="&lt;font style=&quot;font-size: 6px;&quot;&gt;&amp;nbsp;เพิ่มลงตะกร้าและบวกราคา&lt;/font&gt;" style="rounded=0;whiteSpace=wrap;html=1;" parent="mvioNwK95yMqdUQ73LqQ-36" vertex="1">
                    <mxGeometry x="342" y="435" width="55" height="30" as="geometry"/>
                </mxCell>
                <mxCell id="49" value="ใช่" style="text;html=1;align=center;verticalAlign=middle;resizable=0;points=[];autosize=1;strokeColor=none;fillColor=none;" parent="mvioNwK95yMqdUQ73LqQ-36" vertex="1">
                    <mxGeometry x="462" y="370" width="40" height="30" as="geometry"/>
                </mxCell>
                <mxCell id="50" value="ใช่" style="text;html=1;align=center;verticalAlign=middle;resizable=0;points=[];autosize=1;strokeColor=none;fillColor=none;" parent="mvioNwK95yMqdUQ73LqQ-36" vertex="1">
                    <mxGeometry x="462" y="430" width="40" height="30" as="geometry"/>
                </mxCell>
                <mxCell id="51" value="ไม่&lt;br&gt;" style="text;html=1;align=center;verticalAlign=middle;resizable=0;points=[];autosize=1;strokeColor=none;fillColor=none;" parent="mvioNwK95yMqdUQ73LqQ-36" vertex="1">
                    <mxGeometry x="507" y="470" width="40" height="30" as="geometry"/>
                </mxCell>
                <mxCell id="52" value="ใช่" style="text;html=1;align=center;verticalAlign=middle;resizable=0;points=[];autosize=1;strokeColor=none;fillColor=none;" parent="mvioNwK95yMqdUQ73LqQ-36" vertex="1">
                    <mxGeometry x="462" y="310" width="40" height="30" as="geometry"/>
                </mxCell>
                <mxCell id="53" style="edgeStyle=none;html=1;entryX=0.587;entryY=0;entryDx=0;entryDy=0;entryPerimeter=0;" parent="mvioNwK95yMqdUQ73LqQ-36" source="54" target="10" edge="1">
                    <mxGeometry relative="1" as="geometry"/>
                </mxCell>
                <mxCell id="54" value="" style="shape=waypoint;sketch=0;fillStyle=solid;size=6;pointerEvents=1;points=[];fillColor=none;resizable=0;rotatable=0;perimeter=centerPerimeter;snapToPoint=1;" parent="mvioNwK95yMqdUQ73LqQ-36" vertex="1">
                    <mxGeometry x="505" y="200" width="20" height="20" as="geometry"/>
                </mxCell>
                <mxCell id="55" style="edgeStyle=none;html=1;" parent="mvioNwK95yMqdUQ73LqQ-36" source="38" target="54" edge="1">
                    <mxGeometry relative="1" as="geometry">
                        <mxPoint x="1195" y="-471.5295887212644" as="targetPoint"/>
                        <Array as="points">
                            <mxPoint x="518" y="500"/>
                            <mxPoint x="545" y="500"/>
                            <mxPoint x="575" y="500"/>
                            <mxPoint x="575" y="210"/>
                        </Array>
                    </mxGeometry>
                </mxCell>
                <mxCell id="57" value="แสดงตะกร้า" style="shape=parallelogram;perimeter=parallelogramPerimeter;whiteSpace=wrap;html=1;fixedSize=1;" parent="mvioNwK95yMqdUQ73LqQ-36" vertex="1">
                    <mxGeometry x="284" y="490" width="85" height="30" as="geometry"/>
                </mxCell>
                <mxCell id="58" value="&lt;font style=&quot;font-size: 10px;&quot;&gt;เลือกต่อ?&lt;/font&gt;" style="rhombus;whiteSpace=wrap;html=1;" parent="mvioNwK95yMqdUQ73LqQ-36" vertex="1">
                    <mxGeometry x="303" y="531" width="48" height="49" as="geometry"/>
                </mxCell>
                <mxCell id="56" style="edgeStyle=none;html=1;" parent="mvioNwK95yMqdUQ73LqQ-36" source="57" target="58" edge="1">
                    <mxGeometry relative="1" as="geometry"/>
                </mxCell>
                <mxCell id="60" value="" style="shape=waypoint;sketch=0;fillStyle=solid;size=6;pointerEvents=1;points=[];fillColor=none;resizable=0;rotatable=0;perimeter=centerPerimeter;snapToPoint=1;" parent="mvioNwK95yMqdUQ73LqQ-36" vertex="1">
                    <mxGeometry x="317" y="390" width="20" height="20" as="geometry"/>
                </mxCell>
                <mxCell id="18" style="edgeStyle=none;html=1;entryX=0.399;entryY=0.514;entryDx=0;entryDy=0;entryPerimeter=0;" parent="mvioNwK95yMqdUQ73LqQ-36" source="19" target="60" edge="1">
                    <mxGeometry relative="1" as="geometry"/>
                </mxCell>
                <mxCell id="40" style="edgeStyle=none;html=1;entryX=0.635;entryY=0.469;entryDx=0;entryDy=0;entryPerimeter=0;fontSize=6;" parent="mvioNwK95yMqdUQ73LqQ-36" source="41" target="60" edge="1">
                    <mxGeometry relative="1" as="geometry"/>
                </mxCell>
                <mxCell id="45" style="edgeStyle=none;html=1;" parent="mvioNwK95yMqdUQ73LqQ-36" source="46" target="60" edge="1">
                    <mxGeometry relative="1" as="geometry"/>
                </mxCell>
                <mxCell id="47" style="edgeStyle=none;html=1;" parent="mvioNwK95yMqdUQ73LqQ-36" source="48" target="60" edge="1">
                    <mxGeometry relative="1" as="geometry"/>
                </mxCell>
                <mxCell id="61" style="edgeStyle=none;html=1;entryX=0.548;entryY=-0.004;entryDx=0;entryDy=0;entryPerimeter=0;" parent="mvioNwK95yMqdUQ73LqQ-36" source="62" target="2" edge="1">
                    <mxGeometry relative="1" as="geometry"/>
                </mxCell>
                <mxCell id="62" value="" style="shape=waypoint;sketch=0;fillStyle=solid;size=6;pointerEvents=1;points=[];fillColor=none;resizable=0;rotatable=0;perimeter=centerPerimeter;snapToPoint=1;" parent="mvioNwK95yMqdUQ73LqQ-36" vertex="1">
                    <mxGeometry x="332" y="100" width="20" height="20" as="geometry"/>
                </mxCell>
                <mxCell id="63" style="edgeStyle=none;html=1;" parent="mvioNwK95yMqdUQ73LqQ-36" source="58" target="62" edge="1">
                    <mxGeometry relative="1" as="geometry">
                        <mxPoint x="1060" y="-571" as="targetPoint"/>
                        <Array as="points">
                            <mxPoint x="610" y="556"/>
                            <mxPoint x="610" y="110"/>
                        </Array>
                    </mxGeometry>
                </mxCell>
                <mxCell id="64" value="&lt;p style=&quot;line-height: 120%;&quot;&gt;&lt;font style=&quot;font-size: 9px;&quot;&gt;True&lt;/font&gt;&lt;br&gt;&lt;/p&gt;" style="text;strokeColor=none;fillColor=none;html=1;fontSize=24;fontStyle=1;verticalAlign=middle;align=center;" parent="mvioNwK95yMqdUQ73LqQ-36" vertex="1">
                    <mxGeometry x="332" y="529" width="65" height="30" as="geometry"/>
                </mxCell>
                <mxCell id="65" value="&lt;p style=&quot;line-height: 120%;&quot;&gt;&lt;font style=&quot;font-size: 9px;&quot;&gt;False&lt;/font&gt;&lt;br&gt;&lt;/p&gt;" style="text;strokeColor=none;fillColor=none;html=1;fontSize=24;fontStyle=1;verticalAlign=middle;align=center;" parent="mvioNwK95yMqdUQ73LqQ-36" vertex="1">
                    <mxGeometry x="272" y="570" width="65" height="30" as="geometry"/>
                </mxCell>
                <mxCell id="67" value="รวมยอด" style="rounded=0;whiteSpace=wrap;html=1;fontSize=11;" parent="mvioNwK95yMqdUQ73LqQ-36" vertex="1">
                    <mxGeometry x="299.5" y="603" width="50" height="20" as="geometry"/>
                </mxCell>
                <mxCell id="68" value="ยืนยันที่จะจ่าย" style="rhombus;whiteSpace=wrap;html=1;fontSize=11;" parent="mvioNwK95yMqdUQ73LqQ-36" vertex="1">
                    <mxGeometry x="298" y="690" width="53" height="50" as="geometry"/>
                </mxCell>
                <mxCell id="69" style="edgeStyle=none;html=1;entryX=0.502;entryY=-0.043;entryDx=0;entryDy=0;entryPerimeter=0;fontSize=11;" parent="mvioNwK95yMqdUQ73LqQ-36" source="70" target="68" edge="1">
                    <mxGeometry relative="1" as="geometry"/>
                </mxCell>
                <mxCell id="70" value="&lt;font style=&quot;font-size: 10px;&quot;&gt;แสดงยอดและ&lt;br&gt;สินค้า&lt;/font&gt;" style="shape=parallelogram;perimeter=parallelogramPerimeter;whiteSpace=wrap;html=1;fixedSize=1;" parent="mvioNwK95yMqdUQ73LqQ-36" vertex="1">
                    <mxGeometry x="282" y="640" width="85" height="30" as="geometry"/>
                </mxCell>
                <mxCell id="66" style="edgeStyle=none;html=1;entryX=0.5;entryY=0;entryDx=0;entryDy=0;fontSize=11;" parent="mvioNwK95yMqdUQ73LqQ-36" source="67" target="70" edge="1">
                    <mxGeometry relative="1" as="geometry"/>
                </mxCell>
                <mxCell id="71" style="edgeStyle=none;html=1;fontSize=11;entryX=0.84;entryY=1.08;entryDx=0;entryDy=0;entryPerimeter=0;" parent="mvioNwK95yMqdUQ73LqQ-36" source="58" target="65" edge="1">
                    <mxGeometry relative="1" as="geometry">
                        <mxPoint x="986" y="-31" as="targetPoint"/>
                    </mxGeometry>
                </mxCell>
                <mxCell id="72" style="edgeStyle=none;html=1;fontSize=11;" parent="mvioNwK95yMqdUQ73LqQ-36" source="68" target="74" edge="1">
                    <mxGeometry relative="1" as="geometry">
                        <mxPoint x="880" y="-161" as="targetPoint"/>
                        <Array as="points">
                            <mxPoint x="220" y="715"/>
                            <mxPoint x="220" y="520"/>
                            <mxPoint x="270" y="520"/>
                            <mxPoint x="292" y="482"/>
                            <mxPoint x="292" y="452"/>
                        </Array>
                    </mxGeometry>
                </mxCell>
                <mxCell id="73" style="edgeStyle=none;html=1;entryX=0.5;entryY=0;entryDx=0;entryDy=0;fontSize=11;" parent="mvioNwK95yMqdUQ73LqQ-36" source="74" target="57" edge="1">
                    <mxGeometry relative="1" as="geometry"/>
                </mxCell>
                <mxCell id="74" value="" style="shape=waypoint;sketch=0;fillStyle=solid;size=6;pointerEvents=1;points=[];fillColor=none;resizable=0;rotatable=0;perimeter=centerPerimeter;snapToPoint=1;fontSize=11;" parent="mvioNwK95yMqdUQ73LqQ-36" vertex="1">
                    <mxGeometry x="317" y="440" width="20" height="20" as="geometry"/>
                </mxCell>
                <mxCell id="75" style="edgeStyle=none;html=1;entryX=0.552;entryY=0;entryDx=0;entryDy=0;entryPerimeter=0;fontSize=11;" parent="mvioNwK95yMqdUQ73LqQ-36" source="77" edge="1">
                    <mxGeometry relative="1" as="geometry">
                        <mxPoint x="321.9839999999999" y="810" as="targetPoint"/>
                    </mxGeometry>
                </mxCell>
                <mxCell id="77" value="แสดงยอดรวม&lt;br&gt;สินค้าและราคา&lt;br&gt;/รับเงิน" style="shape=parallelogram;perimeter=parallelogramPerimeter;whiteSpace=wrap;html=1;fixedSize=1;fontSize=11;" parent="mvioNwK95yMqdUQ73LqQ-36" vertex="1">
                    <mxGeometry x="277" y="770" width="90" height="40" as="geometry"/>
                </mxCell>
                <mxCell id="59" style="edgeStyle=none;html=1;fontSize=11;" parent="mvioNwK95yMqdUQ73LqQ-36" source="60" target="74" edge="1">
                    <mxGeometry relative="1" as="geometry"/>
                </mxCell>
                <mxCell id="78" style="edgeStyle=none;html=1;entryX=0.5;entryY=0;entryDx=0;entryDy=0;fontSize=6;" parent="mvioNwK95yMqdUQ73LqQ-36" source="79" edge="1">
                    <mxGeometry relative="1" as="geometry">
                        <mxPoint x="322" y="876" as="targetPoint"/>
                    </mxGeometry>
                </mxCell>
                <mxCell id="79" value="เงิน&amp;gt;=ราคาที่ต้องจ่าย" style="rhombus;whiteSpace=wrap;html=1;fontSize=11;" parent="mvioNwK95yMqdUQ73LqQ-36" vertex="1">
                    <mxGeometry x="242" y="830" width="160" height="30" as="geometry"/>
                </mxCell>
                <mxCell id="80" value="เงิน - ราคา = เหลือ&amp;nbsp;" style="rounded=0;whiteSpace=wrap;html=1;fontSize=11;" parent="mvioNwK95yMqdUQ73LqQ-36" vertex="1">
                    <mxGeometry x="455" y="835" width="92" height="20" as="geometry"/>
                </mxCell>
                <mxCell id="81" style="edgeStyle=none;html=1;entryX=0.532;entryY=-0.013;entryDx=0;entryDy=0;entryPerimeter=0;fontSize=11;" parent="mvioNwK95yMqdUQ73LqQ-36" source="82" target="77" edge="1">
                    <mxGeometry relative="1" as="geometry"/>
                </mxCell>
                <mxCell id="82" value="" style="shape=waypoint;sketch=0;fillStyle=solid;size=6;pointerEvents=1;points=[];fillColor=none;resizable=0;rotatable=0;perimeter=centerPerimeter;snapToPoint=1;fontSize=11;" parent="mvioNwK95yMqdUQ73LqQ-36" vertex="1">
                    <mxGeometry x="314.5" y="744" width="20" height="20" as="geometry"/>
                </mxCell>
                <mxCell id="83" style="edgeStyle=none;html=1;fontSize=11;" parent="mvioNwK95yMqdUQ73LqQ-36" source="68" target="82" edge="1">
                    <mxGeometry relative="1" as="geometry">
                        <mxPoint x="980" y="79" as="targetPoint"/>
                    </mxGeometry>
                </mxCell>
                <mxCell id="84" style="edgeStyle=none;html=1;fontSize=11;" parent="mvioNwK95yMqdUQ73LqQ-36" source="85" target="82" edge="1">
                    <mxGeometry relative="1" as="geometry">
                        <Array as="points">
                            <mxPoint x="412" y="782"/>
                            <mxPoint x="412" y="752"/>
                        </Array>
                    </mxGeometry>
                </mxCell>
                <mxCell id="85" value="จ่ายเงินไม่ครบ โชว์(เหลือ)" style="shape=parallelogram;perimeter=parallelogramPerimeter;whiteSpace=wrap;html=1;fixedSize=1;fontSize=11;" parent="mvioNwK95yMqdUQ73LqQ-36" vertex="1">
                    <mxGeometry x="426" y="770" width="146" height="20" as="geometry"/>
                </mxCell>
                <mxCell id="86" style="edgeStyle=none;html=1;fontSize=11;entryX=0;entryY=0.5;entryDx=0;entryDy=0;" parent="mvioNwK95yMqdUQ73LqQ-36" source="79" target="80" edge="1">
                    <mxGeometry relative="1" as="geometry">
                        <mxPoint x="1100" y="174" as="targetPoint"/>
                    </mxGeometry>
                </mxCell>
                <mxCell id="87" style="edgeStyle=none;html=1;fontSize=11;entryX=0.5;entryY=1;entryDx=0;entryDy=0;" parent="mvioNwK95yMqdUQ73LqQ-36" source="80" target="85" edge="1">
                    <mxGeometry relative="1" as="geometry">
                        <mxPoint x="1161" y="219" as="targetPoint"/>
                        <Array as="points">
                            <mxPoint x="500" y="880"/>
                            <mxPoint x="582" y="880"/>
                            <mxPoint x="582" y="812"/>
                            <mxPoint x="500" y="812"/>
                        </Array>
                    </mxGeometry>
                </mxCell>
                <mxCell id="88" style="edgeStyle=none;html=1;entryX=0.017;entryY=0.515;entryDx=0;entryDy=0;entryPerimeter=0;fontSize=7;" parent="mvioNwK95yMqdUQ73LqQ-36" source="89" target="19" edge="1">
                    <mxGeometry relative="1" as="geometry"/>
                </mxCell>
                <mxCell id="89" value="&lt;font style=&quot;font-size: 7px;&quot;&gt;เลือกจำนวน&lt;/font&gt;" style="shape=parallelogram;perimeter=parallelogramPerimeter;whiteSpace=wrap;html=1;fixedSize=1;" parent="mvioNwK95yMqdUQ73LqQ-36" vertex="1">
                    <mxGeometry x="182" y="337.5" width="63" height="15" as="geometry"/>
                </mxCell>
                <mxCell id="91" value="&lt;font style=&quot;font-size: 7px;&quot;&gt;เลือกจำนวน&lt;/font&gt;" style="shape=parallelogram;perimeter=parallelogramPerimeter;whiteSpace=wrap;html=1;fixedSize=1;" parent="mvioNwK95yMqdUQ73LqQ-36" vertex="1">
                    <mxGeometry x="182" y="395" width="63" height="15" as="geometry"/>
                </mxCell>
                <mxCell id="76" style="edgeStyle=none;html=1;entryX=0.5;entryY=0;entryDx=0;entryDy=0;fontSize=11;" parent="mvioNwK95yMqdUQ73LqQ-36" source="77" target="79" edge="1">
                    <mxGeometry relative="1" as="geometry"/>
                </mxCell>
                <mxCell id="92" value="&lt;font style=&quot;font-size: 8px;&quot;&gt;&amp;nbsp;เพิ่มลงตะกร้าและบวกราคา&lt;/font&gt;" style="rounded=0;whiteSpace=wrap;html=1;" parent="mvioNwK95yMqdUQ73LqQ-36" vertex="1">
                    <mxGeometry x="252" y="382.5" width="55" height="25" as="geometry"/>
                </mxCell>
                <mxCell id="93" value="&lt;font style=&quot;font-size: 7px;&quot;&gt;เลือกจำนวน&lt;/font&gt;" style="shape=parallelogram;perimeter=parallelogramPerimeter;whiteSpace=wrap;html=1;fixedSize=1;" parent="mvioNwK95yMqdUQ73LqQ-36" vertex="1">
                    <mxGeometry x="192" y="455" width="63" height="15" as="geometry"/>
                </mxCell>
                <mxCell id="94" value="&lt;font style=&quot;font-size: 8px;&quot;&gt;&amp;nbsp;เพิ่มลงตะกร้าและบวกราคา&lt;/font&gt;" style="rounded=0;whiteSpace=wrap;html=1;" parent="mvioNwK95yMqdUQ73LqQ-36" vertex="1">
                    <mxGeometry x="252" y="422.5" width="55" height="25" as="geometry"/>
                </mxCell>
                <mxCell id="95" style="edgeStyle=none;html=1;entryX=0.008;entryY=0.605;entryDx=0;entryDy=0;entryPerimeter=0;fontSize=8;" parent="mvioNwK95yMqdUQ73LqQ-36" source="93" target="94" edge="1">
                    <mxGeometry relative="1" as="geometry"/>
                </mxCell>
                <mxCell id="96" value="" style="endArrow=classic;html=1;fontSize=8;entryX=0.163;entryY=0.558;entryDx=0;entryDy=0;entryPerimeter=0;exitX=1;exitY=0.5;exitDx=0;exitDy=0;" parent="mvioNwK95yMqdUQ73LqQ-36" source="17" target="93" edge="1">
                    <mxGeometry width="50" height="50" relative="1" as="geometry">
                        <mxPoint x="842" y="-189" as="sourcePoint"/>
                        <mxPoint x="892" y="-239" as="targetPoint"/>
                    </mxGeometry>
                </mxCell>
                <mxCell id="97" style="edgeStyle=none;html=1;fontSize=7;" parent="mvioNwK95yMqdUQ73LqQ-36" source="98" target="41" edge="1">
                    <mxGeometry relative="1" as="geometry"/>
                </mxCell>
                <mxCell id="98" value="&lt;font style=&quot;font-size: 7px;&quot;&gt;เลือกจำนวน&lt;/font&gt;" style="shape=parallelogram;perimeter=parallelogramPerimeter;whiteSpace=wrap;html=1;fixedSize=1;" parent="mvioNwK95yMqdUQ73LqQ-36" vertex="1">
                    <mxGeometry x="413.5" y="327.5" width="63" height="15" as="geometry"/>
                </mxCell>
                <mxCell id="99" style="edgeStyle=none;html=1;entryX=1;entryY=0.5;entryDx=0;entryDy=0;fontSize=6;" parent="mvioNwK95yMqdUQ73LqQ-36" source="100" target="46" edge="1">
                    <mxGeometry relative="1" as="geometry"/>
                </mxCell>
                <mxCell id="100" value="&lt;font style=&quot;font-size: 7px;&quot;&gt;เลือกจำนวน&lt;/font&gt;" style="shape=parallelogram;perimeter=parallelogramPerimeter;whiteSpace=wrap;html=1;fixedSize=1;" parent="mvioNwK95yMqdUQ73LqQ-36" vertex="1">
                    <mxGeometry x="413.5" y="385" width="63" height="15" as="geometry"/>
                </mxCell>
                <mxCell id="101" style="edgeStyle=none;html=1;entryX=0.989;entryY=0.44;entryDx=0;entryDy=0;entryPerimeter=0;fontSize=6;" parent="mvioNwK95yMqdUQ73LqQ-36" source="102" target="48" edge="1">
                    <mxGeometry relative="1" as="geometry"/>
                </mxCell>
                <mxCell id="102" value="&lt;font style=&quot;font-size: 7px;&quot;&gt;เลือกจำนวน&lt;/font&gt;" style="shape=parallelogram;perimeter=parallelogramPerimeter;whiteSpace=wrap;html=1;fixedSize=1;" parent="mvioNwK95yMqdUQ73LqQ-36" vertex="1">
                    <mxGeometry x="413.5" y="447.5" width="63" height="15" as="geometry"/>
                </mxCell>
                <mxCell id="104" value="&lt;font style=&quot;font-size: 9px;&quot;&gt;เงินที่เข้ามา - ที่ต้องจ่าย = ทอน&lt;/font&gt;" style="rounded=0;whiteSpace=wrap;html=1;fontSize=6;" parent="mvioNwK95yMqdUQ73LqQ-36" vertex="1">
                    <mxGeometry x="262.68" y="876" width="118.63" height="24" as="geometry"/>
                </mxCell>
                <mxCell id="12" style="edgeStyle=none;html=1;entryX=0.14;entryY=0.516;entryDx=0;entryDy=0;entryPerimeter=0;" parent="mvioNwK95yMqdUQ73LqQ-36" source="13" target="89" edge="1">
                    <mxGeometry relative="1" as="geometry">
                        <mxPoint x="860" y="-326" as="targetPoint"/>
                    </mxGeometry>
                </mxCell>
                <mxCell id="105" value="&lt;font style=&quot;font-size: 6px;&quot;&gt;ทอน&amp;gt;=500&lt;br&gt;แบงค์ 500&lt;br&gt;&amp;nbsp;พอไหม&lt;/font&gt;" style="rhombus;whiteSpace=wrap;html=1;fontSize=9;" parent="mvioNwK95yMqdUQ73LqQ-36" vertex="1">
                    <mxGeometry x="277" y="919" width="90" height="41" as="geometry"/>
                </mxCell>
                <mxCell id="106" value="&lt;p style=&quot;line-height: 120%;&quot;&gt;&lt;font style=&quot;font-size: 9px;&quot;&gt;True&lt;/font&gt;&lt;br&gt;&lt;/p&gt;" style="text;strokeColor=none;fillColor=none;html=1;fontSize=24;fontStyle=1;verticalAlign=middle;align=center;" parent="mvioNwK95yMqdUQ73LqQ-36" vertex="1">
                    <mxGeometry x="309.5" y="849" width="65" height="30" as="geometry"/>
                </mxCell>
                <mxCell id="107" value="&lt;p style=&quot;line-height: 120%;&quot;&gt;&lt;font style=&quot;font-size: 8px;&quot;&gt;False&lt;/font&gt;&lt;br&gt;&lt;/p&gt;" style="text;strokeColor=none;fillColor=none;html=1;fontSize=24;fontStyle=1;verticalAlign=middle;align=center;" parent="mvioNwK95yMqdUQ73LqQ-36" vertex="1">
                    <mxGeometry x="367" y="819" width="65" height="30" as="geometry"/>
                </mxCell>
                <mxCell id="108" value="ทอนแบงค์ห้าร้อย \&lt;br&gt;-1 แบงค์ 500 ในเครื่อง" style="rounded=0;whiteSpace=wrap;html=1;fontSize=5;" parent="mvioNwK95yMqdUQ73LqQ-36" vertex="1">
                    <mxGeometry x="40" y="929.5" width="49" height="20" as="geometry"/>
                </mxCell>
                <mxCell id="110" value="ทอนครบไหม" style="rhombus;whiteSpace=wrap;html=1;fontSize=5;" parent="mvioNwK95yMqdUQ73LqQ-36" vertex="1">
                    <mxGeometry x="35" y="979" width="45" height="21" as="geometry"/>
                </mxCell>
                <mxCell id="90" style="edgeStyle=none;html=1;entryX=0.008;entryY=0.605;entryDx=0;entryDy=0;entryPerimeter=0;fontSize=8;" parent="mvioNwK95yMqdUQ73LqQ-36" source="91" target="92" edge="1">
                    <mxGeometry relative="1" as="geometry"/>
                </mxCell>
                <mxCell id="111" style="edgeStyle=none;html=1;fontSize=5;entryX=0.5;entryY=0;entryDx=0;entryDy=0;exitX=0.354;exitY=1.019;exitDx=0;exitDy=0;exitPerimeter=0;" parent="mvioNwK95yMqdUQ73LqQ-36" source="108" target="110" edge="1">
                    <mxGeometry relative="1" as="geometry">
                        <mxPoint x="800" y="308" as="targetPoint"/>
                    </mxGeometry>
                </mxCell>
                <mxCell id="112" style="edgeStyle=none;html=1;fontSize=5;entryX=1;entryY=0.5;entryDx=0;entryDy=0;" parent="mvioNwK95yMqdUQ73LqQ-36" source="105" target="108" edge="1">
                    <mxGeometry relative="1" as="geometry">
                        <mxPoint x="892" y="268.5" as="targetPoint"/>
                    </mxGeometry>
                </mxCell>
                <mxCell id="113" style="edgeStyle=none;html=1;fontSize=5;entryX=0;entryY=0.5;entryDx=0;entryDy=0;exitX=1;exitY=0.5;exitDx=0;exitDy=0;" parent="mvioNwK95yMqdUQ73LqQ-36" source="115" target="117" edge="1">
                    <mxGeometry relative="1" as="geometry">
                        <mxPoint x="161.8840175340615" y="990.3204541005889" as="sourcePoint"/>
                        <mxPoint x="847" y="318" as="targetPoint"/>
                    </mxGeometry>
                </mxCell>
                <mxCell id="115" value="ทอน&amp;gt;=100&lt;br&gt;/แบงค์พอ" style="rhombus;whiteSpace=wrap;html=1;fontSize=5;" parent="mvioNwK95yMqdUQ73LqQ-36" vertex="1">
                    <mxGeometry x="132.27" y="973.25" width="35.82" height="30.5" as="geometry"/>
                </mxCell>
                <mxCell id="33" style="edgeStyle=none;html=1;entryX=1;entryY=0.5;entryDx=0;entryDy=0;" parent="mvioNwK95yMqdUQ73LqQ-36" source="34" target="98" edge="1">
                    <mxGeometry relative="1" as="geometry"/>
                </mxCell>
                <mxCell id="117" value="ทอนแบงค์ร้อย&amp;nbsp;\&lt;br&gt;-1 แบงค์ 100 ในเครื่อง" style="rounded=0;whiteSpace=wrap;html=1;fontSize=5;" parent="mvioNwK95yMqdUQ73LqQ-36" vertex="1">
                    <mxGeometry x="185" y="979" width="52" height="20" as="geometry"/>
                </mxCell>
                <mxCell id="119" value="ทอน&amp;gt;=50&lt;span style=&quot;color: rgba(0, 0, 0, 0); font-family: monospace; font-size: 0px; text-align: start;&quot;&gt;%3CmxGraphModel%3E%3Croot%3E%3CmxCell%20id%3D%220%22%2F%3E%3CmxCell%20id%3D%221%22%20parent%3D%220%22%2F%3E%3CmxCell%20id%3D%222%22%20value%3D%22%E0%B8%97%E0%B8%AD%E0%B8%99%26amp%3Bgt%3B100%22%20style%3D%22rhombus%3BwhiteSpace%3Dwrap%3Bhtml%3D1%3BfontSize%3D5%3B%22%20vertex%3D%221%22%20parent%3D%221%22%3E%3CmxGeometry%20x%3D%22-530%22%20y%3D%221629%22%20width%3D%2250%22%20height%3D%2243.5%22%20as%3D%22geometry%22%2F%3E%3C%2FmxCell%3E%3C%2Froot%3E%3C%2FmxGraphModel%3E&lt;br&gt;&lt;/span&gt;/แบงค์พอ&lt;span style=&quot;color: rgba(0, 0, 0, 0); font-family: monospace; font-size: 0px; text-align: start;&quot;&gt;&lt;br&gt;&lt;/span&gt;" style="rhombus;whiteSpace=wrap;html=1;fontSize=5;" parent="mvioNwK95yMqdUQ73LqQ-36" vertex="1">
                    <mxGeometry x="130.68000000000006" y="1013" width="38" height="21" as="geometry"/>
                </mxCell>
                <mxCell id="37" style="edgeStyle=none;html=1;entryX=1;entryY=0.5;entryDx=0;entryDy=0;" parent="mvioNwK95yMqdUQ73LqQ-36" source="38" target="102" edge="1">
                    <mxGeometry relative="1" as="geometry"/>
                </mxCell>
                <mxCell id="121" value="ทอน&amp;gt;=20&lt;br&gt;/แบงค์พอ" style="rhombus;whiteSpace=wrap;html=1;fontSize=5;" parent="mvioNwK95yMqdUQ73LqQ-36" vertex="1">
                    <mxGeometry x="130.67999999999995" y="1049" width="39" height="23.5" as="geometry"/>
                </mxCell>
                <mxCell id="103" style="edgeStyle=none;html=1;entryX=0.5;entryY=0;entryDx=0;entryDy=0;fontSize=9;" parent="mvioNwK95yMqdUQ73LqQ-36" source="104" target="105" edge="1">
                    <mxGeometry relative="1" as="geometry"/>
                </mxCell>
                <mxCell id="123" value="ทอนแบงค์ห้าสิบ \&lt;br&gt;-1 แบงค์ 50 ในเครื่อง" style="rounded=0;whiteSpace=wrap;html=1;fontSize=5;" parent="mvioNwK95yMqdUQ73LqQ-36" vertex="1">
                    <mxGeometry x="185" y="1014" width="52" height="20" as="geometry"/>
                </mxCell>
                <mxCell id="125" value="ทอนครบไหม" style="rhombus;whiteSpace=wrap;html=1;fontSize=5;" parent="mvioNwK95yMqdUQ73LqQ-36" vertex="1">
                    <mxGeometry x="272" y="978" width="45" height="21" as="geometry"/>
                </mxCell>
                <mxCell id="114" style="edgeStyle=none;html=1;fontSize=5;entryX=0.5;entryY=0;entryDx=0;entryDy=0;exitX=0.5;exitY=1;exitDx=0;exitDy=0;" parent="mvioNwK95yMqdUQ73LqQ-36" source="115" target="119" edge="1">
                    <mxGeometry relative="1" as="geometry">
                        <mxPoint x="810" y="348" as="targetPoint"/>
                    </mxGeometry>
                </mxCell>
                <mxCell id="118" style="edgeStyle=none;html=1;fontSize=5;entryX=0;entryY=0.5;entryDx=0;entryDy=0;" parent="mvioNwK95yMqdUQ73LqQ-36" source="119" target="123" edge="1">
                    <mxGeometry relative="1" as="geometry">
                        <mxPoint x="837" y="358" as="targetPoint"/>
                    </mxGeometry>
                </mxCell>
                <mxCell id="126" style="edgeStyle=none;html=1;fontSize=5;entryX=0;entryY=0.5;entryDx=0;entryDy=0;" parent="mvioNwK95yMqdUQ73LqQ-36" source="110" target="115" edge="1">
                    <mxGeometry relative="1" as="geometry">
                        <mxPoint x="752" y="319" as="targetPoint"/>
                    </mxGeometry>
                </mxCell>
                <mxCell id="127" style="edgeStyle=none;html=1;fontSize=5;" parent="mvioNwK95yMqdUQ73LqQ-36" source="119" target="121" edge="1">
                    <mxGeometry relative="1" as="geometry">
                        <mxPoint x="837" y="378" as="targetPoint"/>
                        <Array as="points">
                            <mxPoint x="150.67999999999995" y="1049"/>
                        </Array>
                    </mxGeometry>
                </mxCell>
                <mxCell id="130" value="ทอน&amp;gt;=10&lt;br&gt;/เหรียญพอ" style="rhombus;whiteSpace=wrap;html=1;fontSize=5;" parent="mvioNwK95yMqdUQ73LqQ-36" vertex="1">
                    <mxGeometry x="130.67999999999995" y="1082.5" width="39" height="23.5" as="geometry"/>
                </mxCell>
                <mxCell id="131" style="edgeStyle=none;html=1;fontSize=5;entryX=0.508;entryY=0.073;entryDx=0;entryDy=0;entryPerimeter=0;" parent="mvioNwK95yMqdUQ73LqQ-36" source="121" target="130" edge="1">
                    <mxGeometry relative="1" as="geometry">
                        <mxPoint x="810.18" y="408" as="targetPoint"/>
                    </mxGeometry>
                </mxCell>
                <mxCell id="134" value="ทอน&amp;gt;=5&lt;br&gt;/เหรียญพอ" style="rhombus;whiteSpace=wrap;html=1;fontSize=5;" parent="mvioNwK95yMqdUQ73LqQ-36" vertex="1">
                    <mxGeometry x="130.67999999999995" y="1119" width="39" height="23.5" as="geometry"/>
                </mxCell>
                <mxCell id="128" style="edgeStyle=none;html=1;entryX=0.5;entryY=0;entryDx=0;entryDy=0;fontSize=5;" parent="mvioNwK95yMqdUQ73LqQ-36" source="130" target="134" edge="1">
                    <mxGeometry relative="1" as="geometry"/>
                </mxCell>
                <mxCell id="135" value="ทอนแบงค์20 \&lt;br&gt;-1 แบงค์ 20 ในเครื่อง" style="rounded=0;whiteSpace=wrap;html=1;fontSize=5;" parent="mvioNwK95yMqdUQ73LqQ-36" vertex="1">
                    <mxGeometry x="185" y="1050.75" width="52" height="20" as="geometry"/>
                </mxCell>
                <mxCell id="120" style="edgeStyle=none;html=1;entryX=-0.035;entryY=0.577;entryDx=0;entryDy=0;entryPerimeter=0;fontSize=5;" parent="mvioNwK95yMqdUQ73LqQ-36" source="121" target="135" edge="1">
                    <mxGeometry relative="1" as="geometry"/>
                </mxCell>
                <mxCell id="136" value="ทอนแบงค์เหรียญ 10&amp;nbsp;\&lt;br&gt;-1 เหรียญ 10 ในเครื่อง" style="rounded=0;whiteSpace=wrap;html=1;fontSize=5;" parent="mvioNwK95yMqdUQ73LqQ-36" vertex="1">
                    <mxGeometry x="185" y="1084.25" width="52" height="20" as="geometry"/>
                </mxCell>
                <mxCell id="129" style="edgeStyle=none;html=1;entryX=0;entryY=0.5;entryDx=0;entryDy=0;fontSize=5;" parent="mvioNwK95yMqdUQ73LqQ-36" source="130" target="136" edge="1">
                    <mxGeometry relative="1" as="geometry"/>
                </mxCell>
                <mxCell id="138" value="ทอนเหรียญ 5&amp;nbsp;\&lt;br&gt;-1 เหรียญ&amp;nbsp;5 ในเครื่อง" style="rounded=0;whiteSpace=wrap;html=1;fontSize=5;" parent="mvioNwK95yMqdUQ73LqQ-36" vertex="1">
                    <mxGeometry x="185" y="1120.75" width="52" height="20" as="geometry"/>
                </mxCell>
                <mxCell id="133" style="edgeStyle=none;html=1;entryX=-0.009;entryY=0.572;entryDx=0;entryDy=0;entryPerimeter=0;fontSize=5;" parent="mvioNwK95yMqdUQ73LqQ-36" source="134" target="138" edge="1">
                    <mxGeometry relative="1" as="geometry"/>
                </mxCell>
                <mxCell id="140" value="ทอนเหรียญ 1&amp;nbsp;\&lt;br&gt;-1 เหรียญ 1 ในเครื่อง" style="rounded=0;whiteSpace=wrap;html=1;fontSize=5;" parent="mvioNwK95yMqdUQ73LqQ-36" vertex="1">
                    <mxGeometry x="185" y="1159" width="52" height="20" as="geometry"/>
                </mxCell>
                <mxCell id="132" style="edgeStyle=none;html=1;entryX=0;entryY=0.5;entryDx=0;entryDy=0;fontSize=5;" parent="mvioNwK95yMqdUQ73LqQ-36" source="134" target="140" edge="1">
                    <mxGeometry relative="1" as="geometry">
                        <mxPoint x="810.18" y="488.0000000000002" as="targetPoint"/>
                        <Array as="points">
                            <mxPoint x="150" y="1159"/>
                            <mxPoint x="150" y="1169"/>
                        </Array>
                    </mxGeometry>
                </mxCell>
                <mxCell id="141" style="edgeStyle=none;html=1;fontSize=5;exitX=1;exitY=0.5;exitDx=0;exitDy=0;" parent="mvioNwK95yMqdUQ73LqQ-36" source="125" edge="1">
                    <mxGeometry relative="1" as="geometry">
                        <mxPoint x="949.4523261560184" y="300.4168337451466" as="sourcePoint"/>
                        <mxPoint x="62" y="959" as="targetPoint"/>
                        <Array as="points">
                            <mxPoint x="317" y="970"/>
                            <mxPoint x="280" y="970"/>
                            <mxPoint x="120" y="970"/>
                            <mxPoint x="120" y="960"/>
                        </Array>
                    </mxGeometry>
                </mxCell>
                <mxCell id="142" value="" style="shape=waypoint;sketch=0;fillStyle=solid;size=6;pointerEvents=1;points=[];fillColor=none;resizable=0;rotatable=0;perimeter=centerPerimeter;snapToPoint=1;fontSize=5;" parent="mvioNwK95yMqdUQ73LqQ-36" vertex="1">
                    <mxGeometry x="243" y="979" width="20" height="20" as="geometry"/>
                </mxCell>
                <mxCell id="143" value="" style="edgeStyle=none;html=1;fontSize=5;entryDx=0;entryDy=0;entryPerimeter=0;endArrow=none;" parent="mvioNwK95yMqdUQ73LqQ-36" source="117" target="142" edge="1">
                    <mxGeometry relative="1" as="geometry">
                        <mxPoint x="237" y="988.7194184168011" as="sourcePoint"/>
                        <mxPoint x="272.9000000000001" y="988.3320000000003" as="targetPoint"/>
                    </mxGeometry>
                </mxCell>
                <mxCell id="144" style="edgeStyle=none;html=1;fontSize=5;strokeColor=default;endArrow=none;endFill=0;entryX=0.455;entryY=1.044;entryDx=0;entryDy=0;entryPerimeter=0;" parent="mvioNwK95yMqdUQ73LqQ-36" source="135" target="142" edge="1">
                    <mxGeometry relative="1" as="geometry">
                        <mxPoint x="917" y="358" as="targetPoint"/>
                        <Array as="points">
                            <mxPoint x="253" y="1060"/>
                            <mxPoint x="253" y="1039"/>
                        </Array>
                    </mxGeometry>
                </mxCell>
                <mxCell id="122" style="edgeStyle=none;html=1;strokeColor=default;fontSize=5;endArrow=blockThin;endFill=1;" parent="mvioNwK95yMqdUQ73LqQ-36" source="123" target="142" edge="1">
                    <mxGeometry relative="1" as="geometry">
                        <Array as="points">
                            <mxPoint x="253" y="1024"/>
                        </Array>
                    </mxGeometry>
                </mxCell>
                <mxCell id="145" style="edgeStyle=none;html=1;strokeColor=default;fontSize=5;endArrow=none;endFill=0;" parent="mvioNwK95yMqdUQ73LqQ-36" source="136" target="142" edge="1">
                    <mxGeometry relative="1" as="geometry">
                        <mxPoint x="917" y="318" as="targetPoint"/>
                        <Array as="points">
                            <mxPoint x="253" y="1100"/>
                            <mxPoint x="253" y="1089"/>
                        </Array>
                    </mxGeometry>
                </mxCell>
                <mxCell id="147" value="ทอนแบงค์ห้าร้อย \&lt;br&gt;-1 แบงค์ 100 ในเครื่อง" style="rounded=0;whiteSpace=wrap;html=1;fontSize=5;" parent="mvioNwK95yMqdUQ73LqQ-36" vertex="1">
                    <mxGeometry x="565" y="929.5" width="63" height="20" as="geometry"/>
                </mxCell>
                <mxCell id="116" style="edgeStyle=none;html=1;fontSize=5;entryX=0.02;entryY=0.492;entryDx=0;entryDy=0;entryPerimeter=0;startArrow=none;" parent="mvioNwK95yMqdUQ73LqQ-36" source="142" target="125" edge="1">
                    <mxGeometry relative="1" as="geometry">
                        <mxPoint x="907" y="318" as="targetPoint"/>
                    </mxGeometry>
                </mxCell>
                <mxCell id="148" style="edgeStyle=none;html=1;entryX=0;entryY=0.5;entryDx=0;entryDy=0;strokeColor=default;fontSize=5;endArrow=classic;endFill=1;" parent="mvioNwK95yMqdUQ73LqQ-36" source="150" target="147" edge="1">
                    <mxGeometry relative="1" as="geometry"/>
                </mxCell>
                <mxCell id="150" value="แบงค์ร้อยพอไหม" style="rhombus;whiteSpace=wrap;html=1;fontSize=5;" parent="mvioNwK95yMqdUQ73LqQ-36" vertex="1">
                    <mxGeometry x="435" y="914.5" width="70" height="50" as="geometry"/>
                </mxCell>
                <mxCell id="151" style="edgeStyle=none;html=1;strokeColor=default;fontSize=5;endArrow=classic;endFill=1;entryX=0;entryY=0.5;entryDx=0;entryDy=0;" parent="mvioNwK95yMqdUQ73LqQ-36" source="105" target="150" edge="1">
                    <mxGeometry relative="1" as="geometry">
                        <mxPoint x="1092" y="268" as="targetPoint"/>
                    </mxGeometry>
                </mxCell>
                <mxCell id="152" value="ทอน&amp;gt;=50&lt;span style=&quot;color: rgba(0, 0, 0, 0); font-family: monospace; font-size: 0px; text-align: start;&quot;&gt;%3CmxGraphModel%3E%3Croot%3E%3CmxCell%20id%3D%220%22%2F%3E%3CmxCell%20id%3D%221%22%20parent%3D%220%22%2F%3E%3CmxCell%20id%3D%222%22%20value%3D%22%E0%B8%97%E0%B8%AD%E0%B8%99%26amp%3Bgt%3B100%22%20style%3D%22rhombus%3BwhiteSpace%3Dwrap%3Bhtml%3D1%3BfontSize%3D5%3B%22%20vertex%3D%221%22%20parent%3D%221%22%3E%3CmxGeometry%20x%3D%22-530%22%20y%3D%221629%22%20width%3D%2250%22%20height%3D%2243.5%22%20as%3D%22geometry%22%2F%3E%3C%2FmxCell%3E%3C%2Froot%3E%3C%2FmxGraphModel%3E&lt;br&gt;&lt;/span&gt;/แบงค์พอ&lt;span style=&quot;color: rgba(0, 0, 0, 0); font-family: monospace; font-size: 0px; text-align: start;&quot;&gt;&lt;br&gt;&lt;/span&gt;" style="rhombus;whiteSpace=wrap;html=1;fontSize=5;" parent="mvioNwK95yMqdUQ73LqQ-36" vertex="1">
                    <mxGeometry x="381.31000000000006" y="993" width="38" height="21" as="geometry"/>
                </mxCell>
                <mxCell id="137" style="edgeStyle=none;html=1;strokeColor=default;fontSize=5;endArrow=none;endFill=0;" parent="mvioNwK95yMqdUQ73LqQ-36" source="138" target="142" edge="1">
                    <mxGeometry relative="1" as="geometry">
                        <Array as="points">
                            <mxPoint x="253" y="1131"/>
                            <mxPoint x="253" y="1069"/>
                        </Array>
                    </mxGeometry>
                </mxCell>
                <mxCell id="153" value="ทอน&amp;gt;=20&lt;br&gt;/แบงค์พอ" style="rhombus;whiteSpace=wrap;html=1;fontSize=5;" parent="mvioNwK95yMqdUQ73LqQ-36" vertex="1">
                    <mxGeometry x="381.30999999999995" y="1029" width="39" height="23.5" as="geometry"/>
                </mxCell>
                <mxCell id="156" value="ทอนแบงค์ห้าสิบ \&lt;br&gt;-1 แบงค์ 50 ในเครื่อง" style="rounded=0;whiteSpace=wrap;html=1;fontSize=5;" parent="mvioNwK95yMqdUQ73LqQ-36" vertex="1">
                    <mxGeometry x="435.63" y="994" width="52" height="20" as="geometry"/>
                </mxCell>
                <mxCell id="139" style="edgeStyle=none;html=1;entryX=0.455;entryY=0.399;entryDx=0;entryDy=0;entryPerimeter=0;strokeColor=default;fontSize=5;endArrow=none;endFill=0;" parent="mvioNwK95yMqdUQ73LqQ-36" source="140" target="142" edge="1">
                    <mxGeometry relative="1" as="geometry">
                        <Array as="points">
                            <mxPoint x="253" y="1170"/>
                            <mxPoint x="253" y="1079"/>
                        </Array>
                    </mxGeometry>
                </mxCell>
                <mxCell id="157" style="edgeStyle=none;html=1;fontSize=5;entryX=0;entryY=0.5;entryDx=0;entryDy=0;" parent="mvioNwK95yMqdUQ73LqQ-36" source="152" target="156" edge="1">
                    <mxGeometry relative="1" as="geometry">
                        <mxPoint x="1747.6299999999999" y="-333" as="targetPoint"/>
                    </mxGeometry>
                </mxCell>
                <mxCell id="158" style="edgeStyle=none;html=1;fontSize=5;" parent="mvioNwK95yMqdUQ73LqQ-36" source="152" target="153" edge="1">
                    <mxGeometry relative="1" as="geometry">
                        <mxPoint x="1747.6299999999999" y="-313" as="targetPoint"/>
                        <Array as="points">
                            <mxPoint x="401.30999999999995" y="1029"/>
                        </Array>
                    </mxGeometry>
                </mxCell>
                <mxCell id="159" value="ทอน&amp;gt;=10&lt;br&gt;/เหรียญพอ" style="rhombus;whiteSpace=wrap;html=1;fontSize=5;" parent="mvioNwK95yMqdUQ73LqQ-36" vertex="1">
                    <mxGeometry x="381.30999999999995" y="1062.5" width="39" height="23.5" as="geometry"/>
                </mxCell>
                <mxCell id="160" style="edgeStyle=none;html=1;fontSize=5;entryX=0.508;entryY=0.073;entryDx=0;entryDy=0;entryPerimeter=0;" parent="mvioNwK95yMqdUQ73LqQ-36" source="153" target="159" edge="1">
                    <mxGeometry relative="1" as="geometry">
                        <mxPoint x="1720.81" y="-283" as="targetPoint"/>
                    </mxGeometry>
                </mxCell>
                <mxCell id="161" value="ทอน&amp;gt;=5&lt;br&gt;/เหรียญพอ" style="rhombus;whiteSpace=wrap;html=1;fontSize=5;" parent="mvioNwK95yMqdUQ73LqQ-36" vertex="1">
                    <mxGeometry x="381.30999999999995" y="1099" width="39" height="23.5" as="geometry"/>
                </mxCell>
                <mxCell id="162" style="edgeStyle=none;html=1;entryX=0.5;entryY=0;entryDx=0;entryDy=0;fontSize=5;" parent="mvioNwK95yMqdUQ73LqQ-36" source="159" target="161" edge="1">
                    <mxGeometry relative="1" as="geometry"/>
                </mxCell>
                <mxCell id="163" value="ทอนแบงค์20 \&lt;br&gt;-1 แบงค์ 20 ในเครื่อง" style="rounded=0;whiteSpace=wrap;html=1;fontSize=5;" parent="mvioNwK95yMqdUQ73LqQ-36" vertex="1">
                    <mxGeometry x="435.63" y="1030.75" width="52" height="20" as="geometry"/>
                </mxCell>
                <mxCell id="164" style="edgeStyle=none;html=1;entryX=-0.035;entryY=0.577;entryDx=0;entryDy=0;entryPerimeter=0;fontSize=5;" parent="mvioNwK95yMqdUQ73LqQ-36" source="153" target="163" edge="1">
                    <mxGeometry relative="1" as="geometry"/>
                </mxCell>
                <mxCell id="166" value="ทอนแบงค์เหรียญ 10&amp;nbsp;\&lt;br&gt;-1 เหรียญ 10 ในเครื่อง" style="rounded=0;whiteSpace=wrap;html=1;fontSize=5;" parent="mvioNwK95yMqdUQ73LqQ-36" vertex="1">
                    <mxGeometry x="435.63" y="1064.25" width="52" height="20" as="geometry"/>
                </mxCell>
                <mxCell id="167" style="edgeStyle=none;html=1;entryX=0;entryY=0.5;entryDx=0;entryDy=0;fontSize=5;" parent="mvioNwK95yMqdUQ73LqQ-36" source="159" target="166" edge="1">
                    <mxGeometry relative="1" as="geometry"/>
                </mxCell>
                <mxCell id="169" value="ทอนเหรียญ 5&amp;nbsp;\&lt;br&gt;-1 เหรียญ&amp;nbsp;5 ในเครื่อง" style="rounded=0;whiteSpace=wrap;html=1;fontSize=5;" parent="mvioNwK95yMqdUQ73LqQ-36" vertex="1">
                    <mxGeometry x="435.63" y="1100.75" width="52" height="20" as="geometry"/>
                </mxCell>
                <mxCell id="170" style="edgeStyle=none;html=1;entryX=-0.009;entryY=0.572;entryDx=0;entryDy=0;entryPerimeter=0;fontSize=5;" parent="mvioNwK95yMqdUQ73LqQ-36" source="161" target="169" edge="1">
                    <mxGeometry relative="1" as="geometry"/>
                </mxCell>
                <mxCell id="172" value="ทอนเหรียญ 1&amp;nbsp;\&lt;br&gt;-1 เหรียญ 1 ในเครื่อง" style="rounded=0;whiteSpace=wrap;html=1;fontSize=5;" parent="mvioNwK95yMqdUQ73LqQ-36" vertex="1">
                    <mxGeometry x="435.63" y="1139" width="52" height="20" as="geometry"/>
                </mxCell>
                <mxCell id="173" style="edgeStyle=none;html=1;entryX=0;entryY=0.5;entryDx=0;entryDy=0;fontSize=5;" parent="mvioNwK95yMqdUQ73LqQ-36" source="161" target="172" edge="1">
                    <mxGeometry relative="1" as="geometry">
                        <mxPoint x="1720.81" y="-202.99999999999977" as="targetPoint"/>
                        <Array as="points">
                            <mxPoint x="400.63" y="1139"/>
                            <mxPoint x="400.63" y="1149"/>
                        </Array>
                    </mxGeometry>
                </mxCell>
                <mxCell id="174" value="ทอนครบไหม" style="rhombus;whiteSpace=wrap;html=1;fontSize=5;" parent="mvioNwK95yMqdUQ73LqQ-36" vertex="1">
                    <mxGeometry x="574" y="967.5" width="45" height="21" as="geometry"/>
                </mxCell>
                <mxCell id="146" style="edgeStyle=none;html=1;entryX=0.5;entryY=0;entryDx=0;entryDy=0;strokeColor=default;fontSize=6;endArrow=classic;endFill=1;" parent="mvioNwK95yMqdUQ73LqQ-36" source="147" target="174" edge="1">
                    <mxGeometry relative="1" as="geometry"/>
                </mxCell>
                <mxCell id="175" value="" style="edgeStyle=none;html=1;entryDx=0;entryDy=0;strokeColor=default;fontSize=6;endArrow=none;endFill=1;" parent="mvioNwK95yMqdUQ73LqQ-36" source="150" target="176" edge="1">
                    <mxGeometry relative="1" as="geometry">
                        <mxPoint x="471.22164048865613" y="963.6273996509599" as="sourcePoint"/>
                        <mxPoint x="400.31000000000006" y="993" as="targetPoint"/>
                        <Array as="points"/>
                    </mxGeometry>
                </mxCell>
                <mxCell id="809" style="edgeStyle=none;html=1;entryX=0.5;entryY=0;entryDx=0;entryDy=0;fontSize=7;" edge="1" parent="mvioNwK95yMqdUQ73LqQ-36" source="176" target="152">
                    <mxGeometry relative="1" as="geometry">
                        <Array as="points">
                            <mxPoint x="400" y="980"/>
                        </Array>
                    </mxGeometry>
                </mxCell>
                <mxCell id="176" value="" style="shape=waypoint;sketch=0;fillStyle=solid;size=6;pointerEvents=1;points=[];fillColor=none;resizable=0;rotatable=0;perimeter=centerPerimeter;snapToPoint=1;fontSize=6;" parent="mvioNwK95yMqdUQ73LqQ-36" vertex="1">
                    <mxGeometry x="460" y="967.5" width="20" height="20" as="geometry"/>
                </mxCell>
                <mxCell id="177" style="edgeStyle=none;html=1;strokeColor=default;fontSize=6;endArrow=classic;endFill=1;" parent="mvioNwK95yMqdUQ73LqQ-36" source="174" target="176" edge="1">
                    <mxGeometry relative="1" as="geometry">
                        <mxPoint x="1132" y="308" as="targetPoint"/>
                    </mxGeometry>
                </mxCell>
                <mxCell id="808" style="edgeStyle=none;html=1;fontSize=7;exitX=0.5;exitY=0;exitDx=0;exitDy=0;" edge="1" parent="mvioNwK95yMqdUQ73LqQ-36" source="179" target="176">
                    <mxGeometry relative="1" as="geometry">
                        <mxPoint x="556" y="990" as="sourcePoint"/>
                        <Array as="points">
                            <mxPoint x="552" y="990"/>
                            <mxPoint x="546" y="990"/>
                            <mxPoint x="470" y="990"/>
                        </Array>
                    </mxGeometry>
                </mxCell>
                <mxCell id="179" value="ทอนครบไหม" style="rhombus;whiteSpace=wrap;html=1;fontSize=5;" parent="mvioNwK95yMqdUQ73LqQ-36" vertex="1">
                    <mxGeometry x="532" y="992" width="40" height="21" as="geometry"/>
                </mxCell>
                <mxCell id="180" value="" style="shape=waypoint;sketch=0;fillStyle=solid;size=6;pointerEvents=1;points=[];fillColor=none;resizable=0;rotatable=0;perimeter=centerPerimeter;snapToPoint=1;fontSize=6;" parent="mvioNwK95yMqdUQ73LqQ-36" vertex="1">
                    <mxGeometry x="501" y="993" width="20" height="20" as="geometry"/>
                </mxCell>
                <mxCell id="181" style="edgeStyle=none;html=1;strokeColor=default;fontSize=6;endArrow=classic;endFill=1;" parent="mvioNwK95yMqdUQ73LqQ-36" source="163" target="180" edge="1">
                    <mxGeometry relative="1" as="geometry">
                        <mxPoint x="1172" y="369.7499999999998" as="targetPoint"/>
                        <Array as="points">
                            <mxPoint x="512" y="1039"/>
                        </Array>
                    </mxGeometry>
                </mxCell>
                <mxCell id="182" value="" style="shape=waypoint;sketch=0;fillStyle=solid;size=6;pointerEvents=1;points=[];fillColor=none;resizable=0;rotatable=0;perimeter=centerPerimeter;snapToPoint=1;fontSize=6;" parent="mvioNwK95yMqdUQ73LqQ-36" vertex="1">
                    <mxGeometry x="587" y="993" width="20" height="20" as="geometry"/>
                </mxCell>
                <mxCell id="183" style="edgeStyle=none;html=1;strokeColor=default;fontSize=6;endArrow=classic;endFill=1;entryX=-0.005;entryY=0.089;entryDx=0;entryDy=0;entryPerimeter=0;" parent="mvioNwK95yMqdUQ73LqQ-36" source="174" target="182" edge="1">
                    <mxGeometry relative="1" as="geometry">
                        <mxPoint x="1256.5" y="338" as="targetPoint"/>
                    </mxGeometry>
                </mxCell>
                <mxCell id="830" style="edgeStyle=none;html=1;fontSize=7;" edge="1" parent="mvioNwK95yMqdUQ73LqQ-36" source="184" target="mvioNwK95yMqdUQ73LqQ-69">
                    <mxGeometry relative="1" as="geometry"/>
                </mxCell>
                <mxCell id="184" value="ทอนเงิน และ ให้สินค้า" style="shape=parallelogram;perimeter=parallelogramPerimeter;whiteSpace=wrap;html=1;fixedSize=1;fontSize=6;" parent="mvioNwK95yMqdUQ73LqQ-36" vertex="1">
                    <mxGeometry x="286.5" y="1320" width="80" height="20" as="geometry"/>
                </mxCell>
                <mxCell id="185" style="edgeStyle=none;html=1;entryX=0.539;entryY=0.021;entryDx=0;entryDy=0;entryPerimeter=0;strokeColor=default;fontSize=6;endArrow=classic;endFill=1;" parent="mvioNwK95yMqdUQ73LqQ-36" source="186" target="184" edge="1">
                    <mxGeometry relative="1" as="geometry"/>
                </mxCell>
                <mxCell id="186" value="" style="shape=waypoint;sketch=0;fillStyle=solid;size=6;pointerEvents=1;points=[];fillColor=none;resizable=0;rotatable=0;perimeter=centerPerimeter;snapToPoint=1;fontSize=6;" parent="mvioNwK95yMqdUQ73LqQ-36" vertex="1">
                    <mxGeometry x="319.5" y="1219" width="20" height="20" as="geometry"/>
                </mxCell>
                <mxCell id="187" style="edgeStyle=none;html=1;strokeColor=default;fontSize=6;endArrow=classic;endFill=1;" parent="mvioNwK95yMqdUQ73LqQ-36" source="174" target="186" edge="1">
                    <mxGeometry relative="1" as="geometry">
                        <mxPoint x="1256.5" y="437.9999999999998" as="targetPoint"/>
                        <Array as="points">
                            <mxPoint x="602" y="1229"/>
                        </Array>
                    </mxGeometry>
                </mxCell>
                <mxCell id="154" style="edgeStyle=none;html=1;entryX=0;entryY=0.5;entryDx=0;entryDy=0;strokeColor=default;fontSize=6;endArrow=classic;endFill=1;" parent="mvioNwK95yMqdUQ73LqQ-36" source="156" target="179" edge="1">
                    <mxGeometry relative="1" as="geometry"/>
                </mxCell>
                <mxCell id="155" style="edgeStyle=none;html=1;strokeColor=default;fontSize=6;endArrow=classic;endFill=1;" parent="mvioNwK95yMqdUQ73LqQ-36" source="156" target="180" edge="1">
                    <mxGeometry relative="1" as="geometry"/>
                </mxCell>
                <mxCell id="165" style="edgeStyle=none;html=1;entryX=0.567;entryY=0.593;entryDx=0;entryDy=0;entryPerimeter=0;strokeColor=default;fontSize=6;endArrow=classic;endFill=1;" parent="mvioNwK95yMqdUQ73LqQ-36" source="166" target="180" edge="1">
                    <mxGeometry relative="1" as="geometry">
                        <Array as="points">
                            <mxPoint x="512" y="1069"/>
                        </Array>
                    </mxGeometry>
                </mxCell>
                <mxCell id="168" style="edgeStyle=none;html=1;exitX=1;exitY=0.5;exitDx=0;exitDy=0;entryX=0.473;entryY=0.351;entryDx=0;entryDy=0;entryPerimeter=0;strokeColor=default;fontSize=6;endArrow=classic;endFill=1;" parent="mvioNwK95yMqdUQ73LqQ-36" source="169" target="180" edge="1">
                    <mxGeometry relative="1" as="geometry">
                        <Array as="points">
                            <mxPoint x="512" y="1109"/>
                        </Array>
                    </mxGeometry>
                </mxCell>
                <mxCell id="171" style="edgeStyle=none;html=1;strokeColor=default;fontSize=6;endArrow=classic;endFill=1;" parent="mvioNwK95yMqdUQ73LqQ-36" source="172" target="180" edge="1">
                    <mxGeometry relative="1" as="geometry">
                        <Array as="points">
                            <mxPoint x="512" y="1149"/>
                        </Array>
                    </mxGeometry>
                </mxCell>
                <mxCell id="178" style="edgeStyle=none;html=1;entryX=0.457;entryY=0.613;entryDx=0;entryDy=0;entryPerimeter=0;strokeColor=default;fontSize=6;endArrow=classic;endFill=1;" parent="mvioNwK95yMqdUQ73LqQ-36" source="179" target="182" edge="1">
                    <mxGeometry relative="1" as="geometry"/>
                </mxCell>
                <mxCell id="109" style="edgeStyle=none;html=1;entryX=0.496;entryY=0.675;entryDx=0;entryDy=0;entryPerimeter=0;strokeColor=default;fontSize=6;endArrow=classic;endFill=1;" parent="mvioNwK95yMqdUQ73LqQ-36" source="110" target="186" edge="1">
                    <mxGeometry relative="1" as="geometry">
                        <Array as="points">
                            <mxPoint x="60" y="1230"/>
                        </Array>
                    </mxGeometry>
                </mxCell>
                <mxCell id="124" style="edgeStyle=none;html=1;entryX=0.605;entryY=0.62;entryDx=0;entryDy=0;entryPerimeter=0;strokeColor=default;fontSize=6;endArrow=classic;endFill=1;" parent="mvioNwK95yMqdUQ73LqQ-36" source="125" target="186" edge="1">
                    <mxGeometry relative="1" as="geometry">
                        <Array as="points">
                            <mxPoint x="295" y="1110"/>
                            <mxPoint x="300" y="1110"/>
                            <mxPoint x="330" y="1110"/>
                        </Array>
                    </mxGeometry>
                </mxCell>
                <mxCell id="188" value="&lt;font style=&quot;font-size: 7px;&quot;&gt;มากกว่า/&lt;br&gt;แบงค์ 500 พอ&lt;/font&gt;" style="text;strokeColor=none;fillColor=none;align=left;verticalAlign=middle;spacingLeft=4;spacingRight=4;overflow=hidden;points=[[0,0.5],[1,0.5]];portConstraint=eastwest;rotatable=0;whiteSpace=wrap;html=1;" parent="mvioNwK95yMqdUQ73LqQ-36" vertex="1">
                    <mxGeometry x="228" y="907" width="91.5" height="30" as="geometry"/>
                </mxCell>
                <mxCell id="571" value="&lt;font style=&quot;font-size: 7px;&quot;&gt;น้อยกว่า/&lt;br&gt;แบงค์ 500 ไม่พอ&lt;/font&gt;" style="text;strokeColor=none;fillColor=none;align=left;verticalAlign=middle;spacingLeft=4;spacingRight=4;overflow=hidden;points=[[0,0.5],[1,0.5]];portConstraint=eastwest;rotatable=0;whiteSpace=wrap;html=1;" parent="mvioNwK95yMqdUQ73LqQ-36" vertex="1">
                    <mxGeometry x="355.06" y="907" width="91.5" height="30" as="geometry"/>
                </mxCell>
                <mxCell id="572" value="&lt;span style=&quot;font-size: 7px;&quot;&gt;T&lt;/span&gt;" style="text;strokeColor=none;fillColor=none;align=left;verticalAlign=middle;spacingLeft=4;spacingRight=4;overflow=hidden;points=[[0,0.5],[1,0.5]];portConstraint=eastwest;rotatable=0;whiteSpace=wrap;html=1;" parent="mvioNwK95yMqdUQ73LqQ-36" vertex="1">
                    <mxGeometry x="501" y="914.5" width="91.5" height="30" as="geometry"/>
                </mxCell>
                <mxCell id="573" value="&lt;span style=&quot;font-size: 7px;&quot;&gt;F&lt;/span&gt;" style="text;strokeColor=none;fillColor=none;align=left;verticalAlign=middle;spacingLeft=4;spacingRight=4;overflow=hidden;points=[[0,0.5],[1,0.5]];portConstraint=eastwest;rotatable=0;whiteSpace=wrap;html=1;" parent="mvioNwK95yMqdUQ73LqQ-36" vertex="1">
                    <mxGeometry x="476.5" y="944.5" width="91.5" height="30" as="geometry"/>
                </mxCell>
                <mxCell id="574" value="&lt;font style=&quot;font-size: 7px;&quot;&gt;T&lt;/font&gt;" style="text;strokeColor=none;fillColor=none;align=left;verticalAlign=middle;spacingLeft=4;spacingRight=4;overflow=hidden;points=[[0,0.5],[1,0.5]];portConstraint=eastwest;rotatable=0;whiteSpace=wrap;html=1;" vertex="1" parent="mvioNwK95yMqdUQ73LqQ-36">
                    <mxGeometry x="161" y="968.5" width="28" height="24.5" as="geometry"/>
                </mxCell>
                <mxCell id="576" value="&lt;font style=&quot;font-size: 7px;&quot;&gt;F&lt;/font&gt;" style="text;strokeColor=none;fillColor=none;align=left;verticalAlign=middle;spacingLeft=4;spacingRight=4;overflow=hidden;points=[[0,0.5],[1,0.5]];portConstraint=eastwest;rotatable=0;whiteSpace=wrap;html=1;" vertex="1" parent="mvioNwK95yMqdUQ73LqQ-36">
                    <mxGeometry x="151" y="993" width="28" height="24.5" as="geometry"/>
                </mxCell>
                <mxCell id="577" value="&lt;font style=&quot;font-size: 7px;&quot;&gt;T&lt;/font&gt;" style="text;strokeColor=none;fillColor=none;align=left;verticalAlign=middle;spacingLeft=4;spacingRight=4;overflow=hidden;points=[[0,0.5],[1,0.5]];portConstraint=eastwest;rotatable=0;whiteSpace=wrap;html=1;" vertex="1" parent="mvioNwK95yMqdUQ73LqQ-36">
                    <mxGeometry x="163" y="1003.75" width="28" height="24.5" as="geometry"/>
                </mxCell>
                <mxCell id="578" value="&lt;font style=&quot;font-size: 7px;&quot;&gt;F&lt;/font&gt;" style="text;strokeColor=none;fillColor=none;align=left;verticalAlign=middle;spacingLeft=4;spacingRight=4;overflow=hidden;points=[[0,0.5],[1,0.5]];portConstraint=eastwest;rotatable=0;whiteSpace=wrap;html=1;" vertex="1" parent="mvioNwK95yMqdUQ73LqQ-36">
                    <mxGeometry x="151" y="1026.25" width="28" height="24.5" as="geometry"/>
                </mxCell>
                <mxCell id="582" value="&lt;font style=&quot;font-size: 7px;&quot;&gt;T&lt;/font&gt;" style="text;strokeColor=none;fillColor=none;align=left;verticalAlign=middle;spacingLeft=4;spacingRight=4;overflow=hidden;points=[[0,0.5],[1,0.5]];portConstraint=eastwest;rotatable=0;whiteSpace=wrap;html=1;" vertex="1" parent="mvioNwK95yMqdUQ73LqQ-36">
                    <mxGeometry x="164" y="1041" width="28" height="24.5" as="geometry"/>
                </mxCell>
                <mxCell id="579" value="&lt;font style=&quot;font-size: 7px;&quot;&gt;T&lt;/font&gt;" style="text;strokeColor=none;fillColor=none;align=left;verticalAlign=middle;spacingLeft=4;spacingRight=4;overflow=hidden;points=[[0,0.5],[1,0.5]];portConstraint=eastwest;rotatable=0;whiteSpace=wrap;html=1;" vertex="1" parent="mvioNwK95yMqdUQ73LqQ-36">
                    <mxGeometry x="165" y="1074.5" width="28" height="24.5" as="geometry"/>
                </mxCell>
                <mxCell id="583" value="&lt;font style=&quot;font-size: 7px;&quot;&gt;F&lt;/font&gt;" style="text;strokeColor=none;fillColor=none;align=left;verticalAlign=middle;spacingLeft=4;spacingRight=4;overflow=hidden;points=[[0,0.5],[1,0.5]];portConstraint=eastwest;rotatable=0;whiteSpace=wrap;html=1;" vertex="1" parent="mvioNwK95yMqdUQ73LqQ-36">
                    <mxGeometry x="151" y="1061.5" width="28" height="24.5" as="geometry"/>
                </mxCell>
                <mxCell id="584" value="&lt;font style=&quot;font-size: 7px;&quot;&gt;F&lt;/font&gt;" style="text;strokeColor=none;fillColor=none;align=left;verticalAlign=middle;spacingLeft=4;spacingRight=4;overflow=hidden;points=[[0,0.5],[1,0.5]];portConstraint=eastwest;rotatable=0;whiteSpace=wrap;html=1;" vertex="1" parent="mvioNwK95yMqdUQ73LqQ-36">
                    <mxGeometry x="151" y="1096.25" width="28" height="24.5" as="geometry"/>
                </mxCell>
                <mxCell id="585" value="&lt;font style=&quot;font-size: 7px;&quot;&gt;F&lt;/font&gt;" style="text;strokeColor=none;fillColor=none;align=left;verticalAlign=middle;spacingLeft=4;spacingRight=4;overflow=hidden;points=[[0,0.5],[1,0.5]];portConstraint=eastwest;rotatable=0;whiteSpace=wrap;html=1;" vertex="1" parent="mvioNwK95yMqdUQ73LqQ-36">
                    <mxGeometry x="147" y="1131.75" width="28" height="24.5" as="geometry"/>
                </mxCell>
                <mxCell id="586" value="&lt;font style=&quot;font-size: 7px;&quot;&gt;T&lt;/font&gt;" style="text;strokeColor=none;fillColor=none;align=left;verticalAlign=middle;spacingLeft=4;spacingRight=4;overflow=hidden;points=[[0,0.5],[1,0.5]];portConstraint=eastwest;rotatable=0;whiteSpace=wrap;html=1;" vertex="1" parent="mvioNwK95yMqdUQ73LqQ-36">
                    <mxGeometry x="163" y="1111" width="28" height="24.5" as="geometry"/>
                </mxCell>
                <mxCell id="587" value="&lt;font style=&quot;font-size: 7px;&quot;&gt;T&lt;/font&gt;" style="text;strokeColor=none;fillColor=none;align=left;verticalAlign=middle;spacingLeft=4;spacingRight=4;overflow=hidden;points=[[0,0.5],[1,0.5]];portConstraint=eastwest;rotatable=0;whiteSpace=wrap;html=1;" vertex="1" parent="mvioNwK95yMqdUQ73LqQ-36">
                    <mxGeometry x="412.5" y="984.5" width="28" height="24.5" as="geometry"/>
                </mxCell>
                <mxCell id="588" value="&lt;font style=&quot;font-size: 7px;&quot;&gt;T&lt;/font&gt;" style="text;strokeColor=none;fillColor=none;align=left;verticalAlign=middle;spacingLeft=4;spacingRight=4;overflow=hidden;points=[[0,0.5],[1,0.5]];portConstraint=eastwest;rotatable=0;whiteSpace=wrap;html=1;" vertex="1" parent="mvioNwK95yMqdUQ73LqQ-36">
                    <mxGeometry x="412.5" y="1020.5" width="28" height="24.5" as="geometry"/>
                </mxCell>
                <mxCell id="589" value="&lt;font style=&quot;font-size: 7px;&quot;&gt;T&lt;/font&gt;" style="text;strokeColor=none;fillColor=none;align=left;verticalAlign=middle;spacingLeft=4;spacingRight=4;overflow=hidden;points=[[0,0.5],[1,0.5]];portConstraint=eastwest;rotatable=0;whiteSpace=wrap;html=1;" vertex="1" parent="mvioNwK95yMqdUQ73LqQ-36">
                    <mxGeometry x="412.5" y="1052.5" width="28" height="24.5" as="geometry"/>
                </mxCell>
                <mxCell id="590" value="&lt;font style=&quot;font-size: 7px;&quot;&gt;T&lt;/font&gt;" style="text;strokeColor=none;fillColor=none;align=left;verticalAlign=middle;spacingLeft=4;spacingRight=4;overflow=hidden;points=[[0,0.5],[1,0.5]];portConstraint=eastwest;rotatable=0;whiteSpace=wrap;html=1;" vertex="1" parent="mvioNwK95yMqdUQ73LqQ-36">
                    <mxGeometry x="412.5" y="1090" width="28" height="24.5" as="geometry"/>
                </mxCell>
                <mxCell id="591" value="&lt;font style=&quot;font-size: 7px;&quot;&gt;F&lt;/font&gt;" style="text;strokeColor=none;fillColor=none;align=left;verticalAlign=middle;spacingLeft=4;spacingRight=4;overflow=hidden;points=[[0,0.5],[1,0.5]];portConstraint=eastwest;rotatable=0;whiteSpace=wrap;html=1;" vertex="1" parent="mvioNwK95yMqdUQ73LqQ-36">
                    <mxGeometry x="398" y="1112.75" width="28" height="24.5" as="geometry"/>
                </mxCell>
                <mxCell id="592" value="&lt;font style=&quot;font-size: 7px;&quot;&gt;F&lt;/font&gt;" style="text;strokeColor=none;fillColor=none;align=left;verticalAlign=middle;spacingLeft=4;spacingRight=4;overflow=hidden;points=[[0,0.5],[1,0.5]];portConstraint=eastwest;rotatable=0;whiteSpace=wrap;html=1;" vertex="1" parent="mvioNwK95yMqdUQ73LqQ-36">
                    <mxGeometry x="384.5" y="1077" width="28" height="24.5" as="geometry"/>
                </mxCell>
                <mxCell id="593" value="&lt;font style=&quot;font-size: 7px;&quot;&gt;F&lt;/font&gt;" style="text;strokeColor=none;fillColor=none;align=left;verticalAlign=middle;spacingLeft=4;spacingRight=4;overflow=hidden;points=[[0,0.5],[1,0.5]];portConstraint=eastwest;rotatable=0;whiteSpace=wrap;html=1;" vertex="1" parent="mvioNwK95yMqdUQ73LqQ-36">
                    <mxGeometry x="381.31" y="1045" width="28" height="24.5" as="geometry"/>
                </mxCell>
                <mxCell id="805" value="&lt;font style=&quot;font-size: 7px;&quot;&gt;F&lt;/font&gt;" style="text;strokeColor=none;fillColor=none;align=left;verticalAlign=middle;spacingLeft=4;spacingRight=4;overflow=hidden;points=[[0,0.5],[1,0.5]];portConstraint=eastwest;rotatable=0;whiteSpace=wrap;html=1;" vertex="1" parent="mvioNwK95yMqdUQ73LqQ-36">
                    <mxGeometry x="381.31" y="1006.25" width="28" height="24.5" as="geometry"/>
                </mxCell>
                <mxCell id="806" value="&lt;span style=&quot;font-size: 7px;&quot;&gt;T&lt;/span&gt;" style="text;strokeColor=none;fillColor=none;align=left;verticalAlign=middle;spacingLeft=4;spacingRight=4;overflow=hidden;points=[[0,0.5],[1,0.5]];portConstraint=eastwest;rotatable=0;whiteSpace=wrap;html=1;" vertex="1" parent="mvioNwK95yMqdUQ73LqQ-36">
                    <mxGeometry x="582" y="974" width="91.5" height="30" as="geometry"/>
                </mxCell>
                <mxCell id="810" value="&lt;span style=&quot;font-size: 7px;&quot;&gt;T&lt;/span&gt;" style="text;strokeColor=none;fillColor=none;align=left;verticalAlign=middle;spacingLeft=4;spacingRight=4;overflow=hidden;points=[[0,0.5],[1,0.5]];portConstraint=eastwest;rotatable=0;whiteSpace=wrap;html=1;" vertex="1" parent="mvioNwK95yMqdUQ73LqQ-36">
                    <mxGeometry x="561" y="979" width="21" height="30" as="geometry"/>
                </mxCell>
                <mxCell id="807" value="&lt;span style=&quot;font-size: 7px;&quot;&gt;F&lt;/span&gt;" style="text;strokeColor=none;fillColor=none;align=left;verticalAlign=middle;spacingLeft=4;spacingRight=4;overflow=hidden;points=[[0,0.5],[1,0.5]];portConstraint=eastwest;rotatable=0;whiteSpace=wrap;html=1;" vertex="1" parent="mvioNwK95yMqdUQ73LqQ-36">
                    <mxGeometry x="549" y="954.5" width="91.5" height="30" as="geometry"/>
                </mxCell>
                <mxCell id="811" value="&lt;span style=&quot;font-size: 7px;&quot;&gt;F&lt;/span&gt;" style="text;strokeColor=none;fillColor=none;align=left;verticalAlign=middle;spacingLeft=4;spacingRight=4;overflow=hidden;points=[[0,0.5],[1,0.5]];portConstraint=eastwest;rotatable=0;whiteSpace=wrap;html=1;" vertex="1" parent="mvioNwK95yMqdUQ73LqQ-36">
                    <mxGeometry x="527.5" y="967.5" width="22.5" height="30" as="geometry"/>
                </mxCell>
                <mxCell id="812" value="เหรียญบาทพอ" style="rhombus;whiteSpace=wrap;html=1;fontSize=5;" vertex="1" parent="mvioNwK95yMqdUQ73LqQ-36">
                    <mxGeometry x="130.17999999999995" y="1157.25" width="39" height="23.5" as="geometry"/>
                </mxCell>
                <mxCell id="813" value="เหรียญบาทพอ" style="rhombus;whiteSpace=wrap;html=1;fontSize=5;" vertex="1" parent="mvioNwK95yMqdUQ73LqQ-36">
                    <mxGeometry x="381.30999999999995" y="1137.25" width="39" height="23.5" as="geometry"/>
                </mxCell>
                <mxCell id="824" style="edgeStyle=none;html=1;fontSize=7;" edge="1" parent="mvioNwK95yMqdUQ73LqQ-36" source="823" target="82">
                    <mxGeometry relative="1" as="geometry">
                        <Array as="points">
                            <mxPoint x="100" y="1320"/>
                            <mxPoint x="20" y="1320"/>
                            <mxPoint x="20" y="754"/>
                        </Array>
                    </mxGeometry>
                </mxCell>
                <mxCell id="823" value="เงินทอนไม่พอ&lt;br&gt;/คืนเงิน" style="shape=parallelogram;perimeter=parallelogramPerimeter;whiteSpace=wrap;html=1;fixedSize=1;fontSize=7;" vertex="1" parent="mvioNwK95yMqdUQ73LqQ-36">
                    <mxGeometry x="64" y="1270" width="70" height="30" as="geometry"/>
                </mxCell>
                <mxCell id="825" value="" style="shape=waypoint;sketch=0;fillStyle=solid;size=6;pointerEvents=1;points=[];fillColor=none;resizable=0;rotatable=0;perimeter=centerPerimeter;snapToPoint=1;fontSize=7;" vertex="1" parent="mvioNwK95yMqdUQ73LqQ-36">
                    <mxGeometry x="48" y="949" width="20" height="20" as="geometry"/>
                </mxCell>
                <mxCell id="826" value="&lt;font style=&quot;font-size: 7px;&quot;&gt;F&lt;/font&gt;" style="text;strokeColor=none;fillColor=none;align=left;verticalAlign=middle;spacingLeft=4;spacingRight=4;overflow=hidden;points=[[0,0.5],[1,0.5]];portConstraint=eastwest;rotatable=0;whiteSpace=wrap;html=1;" vertex="1" parent="mvioNwK95yMqdUQ73LqQ-36">
                    <mxGeometry x="102" y="1170" width="28" height="24.5" as="geometry"/>
                </mxCell>
                <mxCell id="827" value="&lt;font style=&quot;font-size: 7px;&quot;&gt;T&lt;/font&gt;" style="text;strokeColor=none;fillColor=none;align=left;verticalAlign=middle;spacingLeft=4;spacingRight=4;overflow=hidden;points=[[0,0.5],[1,0.5]];portConstraint=eastwest;rotatable=0;whiteSpace=wrap;html=1;" vertex="1" parent="mvioNwK95yMqdUQ73LqQ-36">
                    <mxGeometry x="161" y="1145.5" width="28" height="24.5" as="geometry"/>
                </mxCell>
                <mxCell id="828" value="&lt;font style=&quot;font-size: 7px;&quot;&gt;T&lt;/font&gt;" style="text;strokeColor=none;fillColor=none;align=left;verticalAlign=middle;spacingLeft=4;spacingRight=4;overflow=hidden;points=[[0,0.5],[1,0.5]];portConstraint=eastwest;rotatable=0;whiteSpace=wrap;html=1;" vertex="1" parent="mvioNwK95yMqdUQ73LqQ-36">
                    <mxGeometry x="412.5" y="1127.5" width="28" height="24.5" as="geometry"/>
                </mxCell>
                <mxCell id="829" value="&lt;font style=&quot;font-size: 7px;&quot;&gt;F&lt;/font&gt;" style="text;strokeColor=none;fillColor=none;align=left;verticalAlign=middle;spacingLeft=4;spacingRight=4;overflow=hidden;points=[[0,0.5],[1,0.5]];portConstraint=eastwest;rotatable=0;whiteSpace=wrap;html=1;" vertex="1" parent="mvioNwK95yMqdUQ73LqQ-36">
                    <mxGeometry x="398" y="1152" width="28" height="24.5" as="geometry"/>
                </mxCell>
                <mxCell id="832" value="&lt;span style=&quot;font-size: 7px;&quot;&gt;F&lt;/span&gt;" style="text;strokeColor=none;fillColor=none;align=left;verticalAlign=middle;spacingLeft=4;spacingRight=4;overflow=hidden;points=[[0,0.5],[1,0.5]];portConstraint=eastwest;rotatable=0;whiteSpace=wrap;html=1;" vertex="1" parent="mvioNwK95yMqdUQ73LqQ-36">
                    <mxGeometry x="74" y="968.5" width="28" height="24.5" as="geometry"/>
                </mxCell>
                <mxCell id="833" value="&lt;font style=&quot;font-size: 7px;&quot;&gt;T&lt;/font&gt;" style="text;strokeColor=none;fillColor=none;align=left;verticalAlign=middle;spacingLeft=4;spacingRight=4;overflow=hidden;points=[[0,0.5],[1,0.5]];portConstraint=eastwest;rotatable=0;whiteSpace=wrap;html=1;" vertex="1" parent="mvioNwK95yMqdUQ73LqQ-36">
                    <mxGeometry x="43.500000000000064" y="992" width="28" height="24.5" as="geometry"/>
                </mxCell>
                <mxCell id="mvioNwK95yMqdUQ73LqQ-70" value="&lt;font data-font-src=&quot;https://fonts.googleapis.com/css?family=Sarabun&quot; face=&quot;Sarabun&quot;&gt;โจทย์ปัญหา&lt;/font&gt;" style="swimlane;whiteSpace=wrap;html=1;" parent="WIyWlLk6GJQsqaUBKTNV-1" vertex="1">
                    <mxGeometry x="-720" y="320" width="645" height="310" as="geometry"/>
                </mxCell>
                <mxCell id="mvioNwK95yMqdUQ73LqQ-71" value="&lt;p style=&quot;line-height: 120%;&quot;&gt;&lt;font data-font-src=&quot;https://fonts.googleapis.com/css?family=Sarabun&quot; face=&quot;Sarabun&quot; style=&quot;font-size: 14px;&quot;&gt;&lt;b&gt;&lt;u&gt;โจทย์&lt;/u&gt;&lt;/b&gt; จงเขียน Flowchart เพื่อแสดงขั้นตอนการทำงาน ของเครื่องขายน้ำอัตโนมัติ โดยเครื่องมีการทำงานดังนี้&lt;br&gt;&amp;nbsp; &amp;nbsp; - เครื่องมีสินค้าประเภท &quot;เครื่องดื่ม&quot; อยู่ 3 อย่างคือ กาแฟอเมริกาโน่ร้อน , ลาเต้เย็น , น้ำเปล่า&lt;br&gt;&amp;nbsp; &amp;nbsp; - เครื่องมีสินค้าประเภท &quot;ขนม&quot; อยู่ 3 อย่างคือ ขนมชั้น, ฝอยทอง, ลำไยอบแห้ง&lt;br&gt;&amp;nbsp; &amp;nbsp; - เครื่องสามารถทอนเงินลูกค้าได้ทั้ง เหรียญ และ ธนบัตร (โดยจะต้องเลือกทอนเงินด้วยธนบัตรใหญ่ก่อน)&lt;br&gt;&lt;/font&gt;&lt;span style=&quot;font-family: Sarabun; background-color: initial;&quot;&gt;&amp;nbsp; &amp;nbsp; &amp;nbsp; &amp;nbsp;กรณีที่มีเงินทอนไม่พอ ให้แจ้งลูกค้าก่อนซื้อสินค้าว่า &quot;เครื่องไม่มีเงิน&quot;&lt;br&gt;&amp;nbsp; &amp;nbsp; -&amp;nbsp; เครื่องสามารถแสดงจำนวนสินค้าคงเหลือ ราคาสินค้า จำนวนสินค้าที่ลูกค้าสั่ง และรวมราคาที่ลูกค้าต้องจ่าย&lt;br&gt;&lt;/span&gt;&lt;span style=&quot;font-family: Sarabun; background-color: initial;&quot;&gt;&lt;b&gt;&lt;u&gt;เหตุการณ์&lt;/u&gt;&lt;/b&gt;&lt;br&gt;&amp;nbsp; &amp;nbsp; &lt;b&gt;ลูกค้า&lt;/b&gt;สามารถเลือกสินค้ากี่ชิ้นก็ได้ จนกว่าลูกค้าจะพอใจ เมื่อพอใจแล้ว สามารถกดปุ่ม &quot;ตกลง&quot; เพื่อคำนวณ&lt;br&gt;ยอดเงินทั้งหมดที่ลูกค้าต้องชำระ และลูกค้าต้องใส่เงินไปตามจำนวน(หรือมากกว่า) เพื่อทำการชำระสินค้า&lt;br&gt;และตู้ก็จะทอนเงินให้ลูกค้า พร้อมส่งสินค้าให้ลูกค้า&lt;br&gt;&amp;nbsp; &amp;nbsp; &lt;b&gt;แอ็ดมิน&lt;/b&gt;สามารถได้รับการแจ้งเตือนทุกครั้งที่มีลูกค้ากดซื้อสินค้าหน้าตู้ โดยจะมีข้อมูลสรุปกำไรทั้งหมด จำนวน&lt;br&gt;เงินทอนคงเหลือ(ว่าเหลือแต่ละเหรียญและธนบัตรอยู่ทั้งหมดอย่างละเท่าไหร่)&lt;/span&gt;&lt;/p&gt;" style="text;html=1;align=left;verticalAlign=top;resizable=0;points=[];autosize=1;strokeColor=none;fillColor=none;fontSize=14;" parent="mvioNwK95yMqdUQ73LqQ-70" vertex="1">
                    <mxGeometry x="15" y="20" width="630" height="260" as="geometry"/>
                </mxCell>
                <mxCell id="815" style="edgeStyle=none;html=1;fontSize=7;" edge="1" parent="WIyWlLk6GJQsqaUBKTNV-1" source="812">
                    <mxGeometry relative="1" as="geometry">
                        <mxPoint x="-570" y="1840" as="targetPoint"/>
                    </mxGeometry>
                </mxCell>
                <mxCell id="821" style="edgeStyle=none;html=1;fontSize=7;" edge="1" parent="WIyWlLk6GJQsqaUBKTNV-1" source="816">
                    <mxGeometry relative="1" as="geometry">
                        <mxPoint x="-616" y="1910" as="targetPoint"/>
                        <Array as="points">
                            <mxPoint x="-616" y="1840"/>
                        </Array>
                    </mxGeometry>
                </mxCell>
                <mxCell id="816" value="" style="shape=waypoint;sketch=0;fillStyle=solid;size=6;pointerEvents=1;points=[];fillColor=none;resizable=0;rotatable=0;perimeter=centerPerimeter;snapToPoint=1;fontSize=7;" vertex="1" parent="WIyWlLk6GJQsqaUBKTNV-1">
                    <mxGeometry x="-580" y="1830" width="20" height="20" as="geometry"/>
                </mxCell>
                <mxCell id="818" style="edgeStyle=none;html=1;fontSize=7;" edge="1" parent="WIyWlLk6GJQsqaUBKTNV-1" source="813" target="816">
                    <mxGeometry relative="1" as="geometry">
                        <Array as="points">
                            <mxPoint x="-320" y="1840"/>
                        </Array>
                    </mxGeometry>
                </mxCell>
            </root>
        </mxGraphModel>
    </diagram>
</mxfile>